<svg xmlns="http://www.w3.org/2000/svg" width="680" height="410" viewBox="0 0 680 410"><defs><style>.a,.b,.h,.l,.m,.o,.p,.q{fill:none;}.a,.b{stroke:#cccbcb;stroke-width:4px;}.a,.b,.h,.l,.m,.n,.o,.p,.q,.r,.s{stroke-miterlimit:10;}.b{stroke-dasharray:11.97 7.98;}.c{fill:#efefef;}.d,.n{fill:#cccbcb;}.e{fill:#676767;}.f,.r,.s,.t{fill:#fff;}.g{fill:#231f20;}.h{stroke:#333;}.i{fill:#989898;}.j{fill:#9d35af;}.k{fill:#00deaf;}.l,.r{stroke:#9d35af;}.l,.m,.o,.p,.q,.r,.s{stroke-width:2px;}.m,.s{stroke:#00deaf;}.n{stroke:#231f20;}.o,.p,.q,.t{stroke:#676767;}.p{stroke-dasharray:4.06 2.03;}.q{stroke-dasharray:4 2;}.t{stroke-linejoin:round;}</style></defs><title>dns-3</title><line class="a" x1="20.7" y1="128.5" x2="26.7" y2="128.5"/><line class="b" x1="34.7" y1="128.5" x2="649" y2="128.5"/><line class="a" x1="653" y1="128.5" x2="659" y2="128.5"/><rect class="c" x="46.5" y="27.9" width="119.6" height="76.58" rx="5.9" ry="5.9"/><path class="d" d="M160.2,27.9H52.4a5.9,5.9,0,0,0-5.9,5.9V49.7H166.1V33.8A5.9,5.9,0,0,0,160.2,27.9Z"/><polygon class="e" points="61.3 45.4 50 38.8 61.3 32.3 61.3 45.4"/><polygon class="e" points="66.7 45.4 78 38.8 66.7 32.3 66.7 45.4"/><rect class="f" x="90.1" y="32.3" width="72.2" height="13.09" rx="1.9" ry="1.9"/><path class="g" d="M69.5,69.9h4.2a5.4,5.4,0,0,1,3.3.8,2.9,2.9,0,0,1,1.1,2.5A2.5,2.5,0,0,1,75.5,76a3.3,3.3,0,0,1,2.3,1,3.5,3.5,0,0,1,.8,2.4,3.2,3.2,0,0,1-1.1,2.8,6.3,6.3,0,0,1-3.7.9H69.5V69.9ZM72,71.9v3h1.7a2.2,2.2,0,0,0,1.4-.4,1.4,1.4,0,0,0,.4-1.2,1.5,1.5,0,0,0-.4-1.2,2.1,2.1,0,0,0-1.4-.4H72ZM72,77v3.9h1.7a2.7,2.7,0,0,0,1.7-.4,1.8,1.8,0,0,0,.5-1.5,2,2,0,0,0-.5-1.5,2.5,2.5,0,0,0-1.7-.5H72Z"/><path class="g" d="M89.3,75.9l-1-.6-1.2-.2a3.3,3.3,0,0,0-1.4.3,2.1,2.1,0,0,0-.9.8,2.2,2.2,0,0,0-.3.8,9.1,9.1,0,0,0-.1,1.4V83H81.7V73.2h2.6v1.5a2.8,2.8,0,0,1,1.2-1.3,3.5,3.5,0,0,1,1.8-.5h1l1,0.4v2.5Z"/><path class="g" d="M90.9,78.1a5.5,5.5,0,0,1,1.2-3.8,4.7,4.7,0,0,1,6.6,0,6.4,6.4,0,0,1,0,7.5,4.7,4.7,0,0,1-6.6,0A5.5,5.5,0,0,1,90.9,78.1ZM95.4,75a1.6,1.6,0,0,0-1.5.8,5.1,5.1,0,0,0,0,4.5,1.7,1.7,0,0,0,2.9,0,5.1,5.1,0,0,0,0-4.5A1.7,1.7,0,0,0,95.4,75Z"/><path class="g" d="M100.9,73.2H103l1.2,7.5,1.1-5h2.1l1,5,1.2-7.5h2.1L109.9,83h-2.4l-1.2-5.1L105.1,83h-2.4Z"/><path class="g" d="M120.4,73.5v2.3l-1.5-.7-1.5-.2a2.7,2.7,0,0,0-1.3.3,0.8,0.8,0,0,0-.4.7q0,0.7,1.9,1.1h0.1l0.7,0.2a3.9,3.9,0,0,1,2.1,1.1,2.9,2.9,0,0,1,.7,2,2.7,2.7,0,0,1-1,2.3,4.9,4.9,0,0,1-3,.8l-1.8-.2-1.9-.5V80.4l1.7,0.7,1.7,0.3a2.8,2.8,0,0,0,1.4-.3,0.8,0.8,0,0,0,.5-0.8,0.9,0.9,0,0,0-.3-0.8l-1.6-.6-0.7-.2a4.2,4.2,0,0,1-2.2-1,3,3,0,0,1,.4-4.1,4.6,4.6,0,0,1,2.9-.8h1.7Z"/><path class="g" d="M132.2,82.5l-1.8.6-2,.2a5.1,5.1,0,0,1-3.8-1.3,5.2,5.2,0,0,1-1.3-3.8,5.5,5.5,0,0,1,1.3-3.8,5,5,0,0,1,6.8-.1,5.2,5.2,0,0,1,1.2,3.7v1H126a2.2,2.2,0,0,0,.7,1.7,3.1,3.1,0,0,0,2,.6l1.7-.3,1.8-.8v2.4ZM130,77a2.2,2.2,0,0,0-.5-1.5,2,2,0,0,0-1.5-.5,1.9,1.9,0,0,0-1.4.5A2.5,2.5,0,0,0,126,77H130Z"/><path class="g" d="M143.5,75.9l-1-.6-1.2-.2a3.3,3.3,0,0,0-1.4.3,2.1,2.1,0,0,0-.9.8,2.2,2.2,0,0,0-.3.8,9.1,9.1,0,0,0-.1,1.4V83h-2.6V73.2h2.6v1.5a2.8,2.8,0,0,1,1.2-1.3,3.5,3.5,0,0,1,1.8-.5h1l1,0.4v2.5Z"/><path class="g" d="M97.4,39v2H96.8V39a1.1,1.1,0,0,0-.2-0.7l-0.5-.2a0.7,0.7,0,0,0-.6.3,1.2,1.2,0,0,0-.2.8V41H94.9V36.5h0.5v1.8l0.4-.4h0.6a0.9,0.9,0,0,1,.7.3A1.7,1.7,0,0,1,97.4,39Z"/><path class="g" d="M99.7,36.8v0.9h1.2v0.4H99.7V40a0.7,0.7,0,0,0,.1.5h1.1v0.4h-0.7a1.2,1.2,0,0,1-.9-0.2,1.1,1.1,0,0,1-.2-0.8V38.2H98.3V37.8h0.9V36.8h0.5Z"/><path class="g" d="M103.3,36.9v0.9h1.2v0.4h-1.2V40a0.7,0.7,0,0,0,.1.5h1.1v0.4h-0.7a1.2,1.2,0,0,1-.9-0.2,1.1,1.1,0,0,1-.2-0.8V38.2h-0.9V37.8h0.9V36.8h0.5Z"/><path class="g" d="M106.2,40.7v1.7h-0.5V37.8h0.5v0.4l0.4-.4h0.5a1.1,1.1,0,0,1,.9.5,2.1,2.1,0,0,1,.3,1.3,2.1,2.1,0,0,1-.3,1.3,1.1,1.1,0,0,1-.9.5h-0.5Zm1.6-1.2a1.8,1.8,0,0,0-.2-0.9,0.6,0.6,0,0,0-.6-0.3,0.7,0.7,0,0,0-.6.3,2.3,2.3,0,0,0,0,1.9,0.7,0.7,0,0,0,.6.3,0.6,0.6,0,0,0,.6-0.3A1.8,1.8,0,0,0,107.8,39.4Z"/><path class="g" d="M111.6,37.9v0.5l-0.5-.2h-1a0.4,0.4,0,0,0-.2.4,0.4,0.4,0,0,0,.1.3l0.7,0.2h0.2l0.6,0.3a0.9,0.9,0,0,1,.2.6,0.9,0.9,0,0,1-.3.8,1.5,1.5,0,0,1-1,.3h-0.5l-0.6-.2V40.4l0.6,0.2H111a0.5,0.5,0,0,0,.2-0.4,0.7,0.7,0,0,0-.7-0.5h-0.2l-0.7-.3a0.8,0.8,0,0,1-.2-0.6,0.9,0.9,0,0,1,.3-0.7,1.4,1.4,0,0,1,.9-0.3h1Z"/><path class="g" d="M113.6,40h0.9v1.1h-0.9V40Zm0-2.2h0.9v1.1h-0.9V37.8Z"/><path class="g" d="M118.6,36.7h0.6l-2.3,4.9h-0.6Z"/><path class="g" d="M122.2,36.7h0.6l-2.3,4.9h-0.6Z"/><path class="g" d="M125,36.9v0.9h1.2v0.4H125V40a0.7,0.7,0,0,0,.1.5h1.1v0.4h-0.7a1.2,1.2,0,0,1-.9-0.2,1.1,1.1,0,0,1-.2-0.8V38.2h-0.9V37.8h0.9V36.9H125Z"/><path class="g" d="M129.9,39.1v2h-0.5v-2a1.1,1.1,0,0,0-.2-0.7l-0.5-.2a0.7,0.7,0,0,0-.6.3,1.3,1.3,0,0,0-.2.8v1.9h-0.5V36.6h0.5v1.8l0.4-.4h0.6a0.9,0.9,0,0,1,.7.3A1.7,1.7,0,0,1,129.9,39.1Z"/><path class="g" d="M133.7,39.2v0.3h-2.3a1.3,1.3,0,0,0,.3,1,1,1,0,0,0,.8.3h0.5l0.6-.2V41l-0.6.2h-0.6a1.6,1.6,0,0,1-1.2-.5,1.8,1.8,0,0,1-.4-1.3,1.8,1.8,0,0,1,.4-1.3,1.4,1.4,0,0,1,1.1-.5,1.2,1.2,0,0,1,1,.4A1.6,1.6,0,0,1,133.7,39.2Zm-0.5-.2a1,1,0,0,0-.2-0.6,0.8,0.8,0,0,0-.6-0.2,0.9,0.9,0,0,0-.6.3,0.9,0.9,0,0,0-.3.6h1.8Z"/><path class="g" d="M136,38.2l0.3-.3h0.4a0.6,0.6,0,0,1,.6.3,2.8,2.8,0,0,1,.2,1.2v1.9h-0.5V39.3a2.8,2.8,0,0,0-.1-0.9l-0.3-.2-0.3.2a2.5,2.5,0,0,0-.1.9v1.9h-0.5V39.3a2.6,2.6,0,0,0-.1-0.9l-0.3-.2-0.3.2a2.6,2.6,0,0,0-.1.9v1.9h-0.5V37.8h0.5v0.3l0.2-.3h0.7Z"/><path class="g" d="M138.8,40h1v1.2h-1V40Z"/><path class="g" d="M144.4,41l-0.4.2h-0.5a1.6,1.6,0,0,1-1.2-.5,2.1,2.1,0,0,1,0-2.5,1.6,1.6,0,0,1,1.2-.5h0.5l0.5,0.2v0.6l-0.4-.3h-0.5a1,1,0,0,0-.8.3,1.7,1.7,0,0,0,0,1.9,1,1,0,0,0,.8.3h0.5l0.4-.3V41Z"/><path class="g" d="M146.7,37.8a1.3,1.3,0,0,1,1,.4,2.5,2.5,0,0,1,0,2.6,1.5,1.5,0,0,1-2.1,0,2.5,2.5,0,0,1,0-2.6A1.3,1.3,0,0,1,146.7,37.8Zm0,0.5a0.7,0.7,0,0,0-.6.3,2.2,2.2,0,0,0,0,1.9,0.8,0.8,0,0,0,1.2,0,2.2,2.2,0,0,0,0-1.9A0.7,0.7,0,0,0,146.7,38.3Z"/><path class="g" d="M150.5,38.2l0.3-.3h0.4a0.6,0.6,0,0,1,.6.3,2.8,2.8,0,0,1,.2,1.2v1.9h-0.5V39.3a2.8,2.8,0,0,0-.1-0.9l-0.3-.2-0.3.2a2.5,2.5,0,0,0-.1.9v1.9H150V39.3a2.6,2.6,0,0,0-.1-0.9l-0.3-.2-0.3.2a2.6,2.6,0,0,0-.1.9v1.9h-0.5V37.9h0.5v0.3l0.2-.3h0.7Z"/><path class="f" d="M402.2,21.4h3.3v0.5h-1.4v3.9h-0.6V21.9h-1.4V21.4Z"/><path class="f" d="M407.4,22.5a1.3,1.3,0,0,1,1,.4,2,2,0,0,1,.4,1.3,2,2,0,0,1-.4,1.3,1.5,1.5,0,0,1-2.1,0,2,2,0,0,1-.4-1.3,2,2,0,0,1,.4-1.3A1.3,1.3,0,0,1,407.4,22.5Zm0,0.5a0.7,0.7,0,0,0-.6.3,2.2,2.2,0,0,0,0,1.9,0.8,0.8,0,0,0,1.2,0,2.2,2.2,0,0,0,0-1.9A0.7,0.7,0,0,0,407.4,22.9Z"/><rect class="h" x="46.5" y="27.9" width="119.6" height="76.58" rx="5.9" ry="5.9"/><path class="i" d="M565.3,104.1h1.3l2.1,3.9,2.1-3.9h1.3l-2.8,4.8v3.9h-1.2v-3.9Z"/><path class="i" d="M578.8,108.5a6.4,6.4,0,0,1-.7,3.4,2.7,2.7,0,0,1-4.4,0,8.4,8.4,0,0,1,0-6.8,2.7,2.7,0,0,1,4.4,0A6.4,6.4,0,0,1,578.8,108.5Zm-1.2,0a6.9,6.9,0,0,0-.4-2.8,1.4,1.4,0,0,0-2.6,0,9.8,9.8,0,0,0,0,5.5,1.4,1.4,0,0,0,2.6,0A6.9,6.9,0,0,0,577.6,108.5Z"/><path class="i" d="M580.4,109.5v-5.4h1.2V110a8.1,8.1,0,0,0,0,.9,1.1,1.1,0,0,0,.1.4,1.2,1.2,0,0,0,.5.5l0.9,0.2,0.9-.2a1.3,1.3,0,0,0,.5-0.5,1.1,1.1,0,0,0,.1-0.4,7.9,7.9,0,0,0,0-.9v-5.9h1.2v5.4a7.5,7.5,0,0,1-.2,1.9,2,2,0,0,1-.6.9l-0.9.5-1.1.2-1.1-.2-0.9-.5a2,2,0,0,1-.6-0.9A7.5,7.5,0,0,1,580.4,109.5Z"/><path class="i" d="M591.2,108.7l0.8,0.4a5.4,5.4,0,0,1,.8,1.3l1.2,2.4h-1.3l-1-2.2a3.5,3.5,0,0,0-.8-1.2,1.5,1.5,0,0,0-.9-0.3h-1.1v3.7h-1.2v-8.7H590a3.3,3.3,0,0,1,2.2.7,2.3,2.3,0,0,1,.8,1.9,2.1,2.1,0,0,1-.5,1.4A2.1,2.1,0,0,1,591.2,108.7Zm-2.4-3.6v3.1h1.3a1.8,1.8,0,0,0,1.3-.4,1.5,1.5,0,0,0,.4-1.2,1.5,1.5,0,0,0-.4-1.2,1.8,1.8,0,0,0-1.3-.4h-1.2Z"/><path class="i" d="M607.5,112.6l-0.9.4h-1a3.1,3.1,0,0,1-2.6-1.2,6.5,6.5,0,0,1,0-6.7,3.1,3.1,0,0,1,2.6-1.2h1l0.9,0.4v1.2l-0.9-.5-1-.2a1.9,1.9,0,0,0-1.7.9,6.6,6.6,0,0,0,0,5.4,1.9,1.9,0,0,0,1.7.9l1-.2,0.9-.5v1.2Z"/><path class="i" d="M615,108.5a6.4,6.4,0,0,1-.7,3.4,2.7,2.7,0,0,1-4.4,0,8.4,8.4,0,0,1,0-6.8,2.7,2.7,0,0,1,4.4,0A6.4,6.4,0,0,1,615,108.5Zm-1.2,0a6.9,6.9,0,0,0-.4-2.8,1.4,1.4,0,0,0-2.6,0,9.8,9.8,0,0,0,0,5.5,1.4,1.4,0,0,0,2.6,0A6.9,6.9,0,0,0,613.7,108.5Z"/><path class="i" d="M615.9,104.1h1.6l1.5,4.4,1.5-4.4h1.6v8.7H621v-7.7l-1.6,4.6h-0.9l-1.6-4.6v7.7h-1.1v-8.7Z"/><path class="i" d="M624,104.1h2.6a3.3,3.3,0,0,1,2.2.7,2.9,2.9,0,0,1,0,3.9,3.3,3.3,0,0,1-2.2.7h-1.4v3.5H624v-8.7Zm1.2,1v3.3h1.4a1.8,1.8,0,0,0,1.3-.4,1.8,1.8,0,0,0,0-2.4,1.8,1.8,0,0,0-1.3-.4h-1.4Z"/><path class="i" d="M631,109.5v-5.4h1.2V110a8.1,8.1,0,0,0,0,.9,1.1,1.1,0,0,0,.1.4,1.2,1.2,0,0,0,.5.5l0.9,0.2,0.9-.2a1.3,1.3,0,0,0,.5-0.5,1.1,1.1,0,0,0,.1-0.4,7.9,7.9,0,0,0,0-.9v-5.9h1.2v5.4a7.5,7.5,0,0,1-.2,1.9,2,2,0,0,1-.6.9l-0.9.5-1.1.2-1.1-.2-0.9-.5a2,2,0,0,1-.6-0.9A7.5,7.5,0,0,1,631,109.5Z"/><path class="i" d="M637.6,104.1h6.7v1h-2.7v7.8h-1.2v-7.8h-2.7v-1Z"/><path class="i" d="M645.7,104.1h5.2v1h-4v2.4h3.8v1h-3.8v3.4H651v1h-5.3v-8.7Z"/><path class="i" d="M656.2,108.7l0.8,0.4a5.4,5.4,0,0,1,.8,1.3l1.2,2.4h-1.3l-1-2.2a3.5,3.5,0,0,0-.8-1.2,1.5,1.5,0,0,0-.9-0.3h-1.1v3.7h-1.2v-8.7h2.4a3.3,3.3,0,0,1,2.2.7,2.3,2.3,0,0,1,.8,1.9,2.1,2.1,0,0,1-.5,1.4A2.1,2.1,0,0,1,656.2,108.7Zm-2.4-3.6v3.1h1.3a1.8,1.8,0,0,0,1.3-.4,1.5,1.5,0,0,0,.4-1.2,1.5,1.5,0,0,0-.4-1.2,1.8,1.8,0,0,0-1.3-.4h-1.2Z"/><path class="i" d="M572.6,144.1h6.7v1h-2.7v7.8h-1.2v-7.8h-2.7v-1Z"/><path class="i" d="M580.3,144.1h1.2v3.4h3.2v-3.4H586v8.7h-1.2v-4.4h-3.2v4.4h-1.2v-8.7Z"/><path class="i" d="M587.9,144.1h5.2v1h-4v2.4h3.8v1h-3.8v3.4h4.1v1h-5.3v-8.7Z"/><path class="i" d="M602.4,144.1h4.9v1h-1.8v6.8h1.8v1h-4.9v-1h1.8v-6.8h-1.8v-1Z"/><path class="i" d="M608.5,144.1h1.6l3.4,7.2v-7.2h1.3v8.7h-1.6l-3.4-7.2v7.2h-1.3v-8.7Z"/><path class="i" d="M615.9,144.1h6.7v1h-2.7v7.8h-1.2v-7.8h-2.7v-1Z"/><path class="i" d="M624,144.1h5.2v1h-4v2.4H629v1h-3.8v3.4h4.1v1H624v-8.7Z"/><path class="i" d="M634.6,148.7l0.8,0.4a5.4,5.4,0,0,1,.8,1.3l1.2,2.4h-1.3l-1-2.2a3.5,3.5,0,0,0-.8-1.2,1.5,1.5,0,0,0-.9-0.3h-1.1v3.7h-1.2v-8.7h2.4a3.3,3.3,0,0,1,2.2.7,2.3,2.3,0,0,1,.8,1.9,2.1,2.1,0,0,1-.5,1.4A2.1,2.1,0,0,1,634.6,148.7Zm-2.4-3.6v3.1h1.3a1.8,1.8,0,0,0,1.3-.4,1.5,1.5,0,0,0,.4-1.2,1.5,1.5,0,0,0-.4-1.2,1.9,1.9,0,0,0-1.3-.4h-1.2Z"/><path class="i" d="M637.4,144.1h1.6l3.4,7.2v-7.2h1.3v8.7h-1.6l-3.4-7.2v7.2h-1.3v-8.7Z"/><path class="i" d="M645.7,144.1h5.2v1h-4v2.4h3.8v1h-3.8v3.4H651v1h-5.3v-8.7Z"/><path class="i" d="M652.1,144.1h6.7v1H656v7.8h-1.2v-7.8h-2.7v-1Z"/><path class="j" d="M187.5,298.2h2.4v0.5h-0.9l-0.7,3.4h0.9v0.5h-2.4v-0.5h0.9l0.7-3.4h-0.9v-0.5Z"/><path class="j" d="M191.1,298.2h1.3a1.4,1.4,0,0,1,.9.3,1,1,0,0,1,.3.8,1.5,1.5,0,0,1-.5,1.1,1.9,1.9,0,0,1-1.3.4h-0.7l-0.3,1.8h-0.6Zm0.5,0.5-0.3,1.6H192a1.1,1.1,0,0,0,.8-0.3,1,1,0,0,0,.3-0.7,0.6,0.6,0,0,0-.2-0.5l-0.6-.2h-0.7Z"/><path class="j" d="M200.4,300.8l-0.4,1.9h-0.5v-0.5l-0.5.4h-0.6a1,1,0,0,1-.7-0.2,0.8,0.8,0,0,1-.3-0.6,1.1,1.1,0,0,1,.5-0.9,2,2,0,0,1,1.2-.3h0.7v-0.2h0a0.4,0.4,0,0,0-.2-0.4h-1.1l-0.6.2v-0.5l0.6-.2h0.5a1.3,1.3,0,0,1,.8.2,0.8,0.8,0,0,1,.3.7v0.6Zm-1.1.2h-0.8l-0.3.3a0.7,0.7,0,0,0-.1.4,0.5,0.5,0,0,0,.2.4h0.4a1,1,0,0,0,.7-0.3,1.6,1.6,0,0,0,.4-0.9h-0.5Z"/><path class="j" d="M203.7,299.8l0.3-1.7h0.5l-0.9,4.6h-0.5v-0.4l-0.4.4h-0.5a0.9,0.9,0,0,1-.7-0.3,1.3,1.3,0,0,1-.3-0.9,3.1,3.1,0,0,1,.1-0.8,2.7,2.7,0,0,1,.3-0.7l0.5-.5,0.7-.2h0.5Zm-0.8,0h-0.5l-0.3.4-0.2.6a2.9,2.9,0,0,0-.1.7,0.9,0.9,0,0,0,.1.6l0.4,0.2h0.4l0.3-.4,0.2-.6a2.8,2.8,0,0,0,.1-0.7,0.8,0.8,0,0,0-.2-0.5Z"/><path class="j" d="M207.3,299.8l0.3-1.7h0.5l-0.9,4.6h-0.5v-0.4l-0.4.4h-0.5a0.9,0.9,0,0,1-.7-0.3,1.3,1.3,0,0,1-.3-0.9,3.1,3.1,0,0,1,.1-0.8,2.7,2.7,0,0,1,.3-0.7l0.5-.5,0.7-.2H207Zm-0.8,0h-0.5l-0.3.4-0.2.6a2.9,2.9,0,0,0-.1.7,0.9,0.9,0,0,0,.1.6l0.4,0.2h0.4l0.3-.4,0.2-.6a2.8,2.8,0,0,0,.1-0.7,0.8,0.8,0,0,0-.2-0.5Z"/><path class="j" d="M211.6,300l-0.3-.2h-0.4a1.1,1.1,0,0,0-.8.3,1.7,1.7,0,0,0-.5.9l-0.3,1.6h-0.5l0.6-3.3H210V300l0.5-.5,0.7-.2h0.4l0.3,0.2V300Z"/><path class="j" d="M214.6,302.5l-0.6.2h-0.6a1.4,1.4,0,0,1-1-.3,1.3,1.3,0,0,1-.3-1,2.4,2.4,0,0,1,.2-0.9,2.3,2.3,0,0,1,.5-0.8l0.5-.4h0.6a1.2,1.2,0,0,1,.9.3,1.2,1.2,0,0,1,.3.9v0.6h-2.4v0.2h0a0.8,0.8,0,0,0,.2.6l0.7,0.2h0.6l0.6-.2v0.5Zm-0.1-1.8h0a0.8,0.8,0,0,0-.2-0.5l-0.5-.2-0.7.3a1.5,1.5,0,0,0-.4.7h1.8Z"/><path class="j" d="M218.5,299.5V300l-0.4-.2h-1.1a0.5,0.5,0,0,0-.2.4,0.7,0.7,0,0,0,.6.5h0.3l0.5,0.3a0.6,0.6,0,0,1,.2.4,1,1,0,0,1-.4.9,1.8,1.8,0,0,1-1.1.3h-0.5l-0.5-.2v-0.6l0.5,0.2h0.5l0.6-.2a0.5,0.5,0,0,0,.2-0.4,0.6,0.6,0,0,0-.6-0.4h-0.3l-0.6-.3a0.7,0.7,0,0,1-.2-0.5,0.9,0.9,0,0,1,.4-0.8,1.7,1.7,0,0,1,1-.3h0.9Z"/><path class="j" d="M222.2,299.5V300l-0.4-.2h-1.1a0.5,0.5,0,0,0-.2.4,0.7,0.7,0,0,0,.6.5h0.3l0.5,0.3a0.6,0.6,0,0,1,.2.4,1,1,0,0,1-.4.9,1.8,1.8,0,0,1-1.1.3h-0.5l-0.5-.2v-0.6l0.5,0.2h0.5l0.6-.2a0.5,0.5,0,0,0,.2-0.4,0.6,0.6,0,0,0-.6-0.4h-0.3l-0.6-.3a0.7,0.7,0,0,1-.2-0.5,0.9,0.9,0,0,1,.4-0.8,1.7,1.7,0,0,1,1-.3h0.9Z"/><path class="j" d="M182.9,306.1v0.4h-1a0.7,0.7,0,0,0-.2.4v0.3h1.1v0.4h-1.1l-0.6,2.9h-0.5l0.6-2.9H180v-0.4H181v-0.2a1.4,1.4,0,0,1,.4-0.8,1.2,1.2,0,0,1,.8-0.2h0.6Z"/><path class="j" d="M185,307.3a1.2,1.2,0,0,1,.9.3,1.3,1.3,0,0,1,.3.9,2.8,2.8,0,0,1-.1.8l-0.3.7-0.6.5-0.8.2a1.1,1.1,0,0,1-.8-0.3,1.3,1.3,0,0,1-.3-0.9,2.7,2.7,0,0,1,.1-0.8l0.3-.7,0.6-.5Zm0,0.5a0.9,0.9,0,0,0-.8.5,2.3,2.3,0,0,0-.3,1.3,0.8,0.8,0,0,0,.2.6l0.5,0.2a0.9,0.9,0,0,0,.8-0.5,2.3,2.3,0,0,0,.3-1.3,0.8,0.8,0,0,0-.2-0.6Z"/><path class="j" d="M190,308l-0.3-.2h-0.4a1.1,1.1,0,0,0-.8.3,1.7,1.7,0,0,0-.5.9l-0.3,1.6h-0.5l0.6-3.3h0.5V308l0.5-.5,0.7-.2h0.4l0.3,0.2V308Z"/><path class="j" d="M196,306.4l-0.2.9H197v0.4h-1.2l-0.3,1.8v0.2h0a0.3,0.3,0,0,0,.1.3h1v0.4h-0.7l-0.7-.2a0.6,0.6,0,0,1-.2-0.5v-0.4l0.3-1.8h-0.9v-0.4h0.9l0.2-.9H196Z"/><path class="j" d="M200.5,308.6l-0.4,2h-0.5l0.4-2h0v-0.3a0.5,0.5,0,0,0-.1-0.4h-0.4a0.8,0.8,0,0,0-.6.3,1.5,1.5,0,0,0-.4.8l-0.4,1.9h-0.5l0.9-4.6H199l-0.3,1.8,0.5-.4h0.5l0.6,0.2a0.8,0.8,0,0,1,.2.6v0.5Z"/><path class="j" d="M203.7,310.5l-0.6.2h-0.6a1.4,1.4,0,0,1-1-.3,1.3,1.3,0,0,1-.3-1,2.4,2.4,0,0,1,.2-0.9,2.3,2.3,0,0,1,.5-0.8l0.5-.4H203a1.2,1.2,0,0,1,.9.3,1.2,1.2,0,0,1,.3.9v0.6h-2.4v0.2h0a0.8,0.8,0,0,0,.2.6l0.7,0.2h0.6l0.6-.2v0.5Zm-0.1-1.8h0a0.8,0.8,0,0,0-.2-0.5l-0.5-.2-0.7.3a1.5,1.5,0,0,0-.4.7h1.8Z"/><path class="j" d="M206.7,307.7l0.3-.3h0.4l0.4,0.2a0.6,0.6,0,0,1,.2.4,2.8,2.8,0,0,1,0,.4v0.5l-0.4,1.9H207l0.4-1.9v-0.7a0.4,0.4,0,0,0-.1-0.3h-0.2l-0.3.2a2.8,2.8,0,0,0-.2.8l-0.4,1.9h-0.5l0.4-1.9v-0.7a0.4,0.4,0,0,0-.1-0.3h-0.2l-0.3.2a2.8,2.8,0,0,0-.3.9l-0.4,1.9h-0.5l0.6-3.3h0.5v0.3l0.3-.3h0.7Z"/><path class="j" d="M209.4,309.4h1l-0.2,1.2h-1Z"/><path class="j" d="M214.5,310.5l-0.5.2h-0.5a1.4,1.4,0,0,1-1-.3,1.3,1.3,0,0,1-.3-1,2.4,2.4,0,0,1,.2-0.9,2.1,2.1,0,0,1,.4-0.7l0.6-.4h1.2l0.5,0.2V308l-0.4-.2h-1l-0.4.4-0.3.5a2.1,2.1,0,0,0-.1.6,0.9,0.9,0,0,0,.2.6l0.6,0.2h0.5l0.5-.3v0.6Z"/><path class="j" d="M217.5,307.3a1.2,1.2,0,0,1,.9.3,1.3,1.3,0,0,1,.3.9,2.8,2.8,0,0,1-.1.8l-0.3.7-0.6.5-0.8.2a1.1,1.1,0,0,1-.8-0.3,1.3,1.3,0,0,1-.3-0.9,2.7,2.7,0,0,1,.1-0.8l0.3-.7,0.6-.5Zm0,0.5a0.9,0.9,0,0,0-.8.5,2.3,2.3,0,0,0-.3,1.3,0.8,0.8,0,0,0,.2.6l0.5,0.2a0.9,0.9,0,0,0,.8-0.5,2.3,2.3,0,0,0,.3-1.3,0.8,0.8,0,0,0-.2-0.6Z"/><path class="j" d="M221.2,307.7l0.3-.3h0.4l0.4,0.2a0.6,0.6,0,0,1,.2.4,2.8,2.8,0,0,1,0,.4v0.5l-0.4,1.9h-0.5l0.4-1.9v-0.7a0.4,0.4,0,0,0-.1-0.3h-0.2l-0.3.2a2.8,2.8,0,0,0-.2.8l-0.4,1.9h-0.5l0.4-1.9v-0.7a0.4,0.4,0,0,0-.1-0.3h-0.2l-0.3.2a2.8,2.8,0,0,0-.3.9l-0.4,1.9H219l0.6-3.3h0.5v0.3l0.3-.3H221Z"/><path class="k" d="M276.2,258.7h1.4l0.4,5.8h-1.1v-1.4h-1.6l-0.6,1.4h-1.2Zm0.5,1.1-1,2.4h1.1v-2.4Z"/><path class="k" d="M274.4,272h0.9l0.6-3.3-1,.2v-0.5l1-.2h0.6l-0.8,3.9h0.9v0.5h-2.4V272Z"/><path class="k" d="M278.4,272h2v0.5h-2.7V272l0.9-.8h0.1q1.6-1.4,1.6-2a0.5,0.5,0,0,0-.2-0.4l-0.5-.2H279l-0.7.3v-0.6l0.6-.2h0.6a1.3,1.3,0,0,1,.9.3,0.9,0.9,0,0,1,.3.7,1.4,1.4,0,0,1-.1.5l-0.3.6-0.3.4-0.8.7Z"/><path class="k" d="M282,268.1h2.7v0.3l-2.4,4.1h-0.6l2.3-3.9h-2.1v-0.5Z"/><path class="k" d="M286,271.3h1l-0.2,1.2h-1Z"/><path class="k" d="M290.6,268.1a0.9,0.9,0,0,1,1,.5,3,3,0,0,1,.1,1.7,3.9,3.9,0,0,1-.7,1.7,1.5,1.5,0,0,1-1.2.6,0.9,0.9,0,0,1-1-.5,3,3,0,0,1-.1-1.7,3.9,3.9,0,0,1,.7-1.7A1.5,1.5,0,0,1,290.6,268.1Zm-0.1.5a0.9,0.9,0,0,0-.7.5,4,4,0,0,0-.5,1.4,5,5,0,0,0-.1.8l1.8-2.2A0.5,0.5,0,0,0,290.5,268.5Zm-0.7,3.6a0.9,0.9,0,0,0,.7-0.5,3.9,3.9,0,0,0,.4-1.4,5.8,5.8,0,0,0,.1-0.9l-1.8,2.2A0.5,0.5,0,0,0,289.9,272.1Z"/><path class="k" d="M293.3,271.3h1l-0.2,1.2h-1Z"/><path class="k" d="M297.8,268.1a0.9,0.9,0,0,1,1,.5,3,3,0,0,1,.1,1.7,3.9,3.9,0,0,1-.7,1.7,1.5,1.5,0,0,1-1.2.6,0.9,0.9,0,0,1-1-.5,3,3,0,0,1-.1-1.7,3.9,3.9,0,0,1,.7-1.7A1.5,1.5,0,0,1,297.8,268.1Zm-0.1.5a0.9,0.9,0,0,0-.7.5,4,4,0,0,0-.5,1.4,5,5,0,0,0-.1.8l1.8-2.2A0.5,0.5,0,0,0,297.8,268.5Zm-0.7,3.6a0.9,0.9,0,0,0,.7-0.5,3.9,3.9,0,0,0,.4-1.4,5.8,5.8,0,0,0,.1-0.9l-1.8,2.2A0.5,0.5,0,0,0,297.1,272.1Z"/><path class="k" d="M300.5,271.3h1l-0.2,1.2h-1Z"/><path class="k" d="M303.3,272h0.9l0.6-3.3-1,.2v-0.5l1-.2h0.6l-0.8,3.9h0.9v0.5h-2.4V272Z"/><path class="l" d="M69.9,112.3c0,159.2,168.6,197.3,309.3,197.9"/><polygon class="j" points="378.4 303.6 382.3 310.1 378.2 316.5 378.1 316.5 378.3 303.6 378.4 303.6"/><path class="m" d="M90,115.4c0.5,164,200.3,178.5,292.3,178.5"/><polygon class="k" points="96.5 116.3 90 112.3 83.6 116.4 83.6 116.4 96.5 116.3 96.5 116.3"/><path class="n" d="M465.8,140h51a8.5,8.5,0,0,1,8.5,8.5v92.8a0,0,0,0,1,0,0h-68a0,0,0,0,1,0,0V148.5A8.5,8.5,0,0,1,465.8,140Z"/><rect class="e" x="465.3" y="225" width="52" height="7.33"/><path class="g" d="M481.5,156.6h2.8l3.7,9.5v-9.5h2.3v13.1h-2.8l-3.7-9.5v9.5h-2.3V156.6Z"/><path class="g" d="M495.8,163.9a6.6,6.6,0,0,1-2.7-1.6,3.3,3.3,0,0,1-.7-2.2,3.6,3.6,0,0,1,1.1-2.8,4.5,4.5,0,0,1,3.1-1l1.8,0.2,1.8,0.6v2.5l-1.7-.9a5,5,0,0,0-1.7-.3,2.4,2.4,0,0,0-1.4.4,1.3,1.3,0,0,0-.5,1.1,1.2,1.2,0,0,0,.4.9,4.7,4.7,0,0,0,1.5.8L498,162a5.1,5.1,0,0,1,2.3,1.5,3.8,3.8,0,0,1,.7,2.4,3.6,3.6,0,0,1-1.2,3,5.4,5.4,0,0,1-3.5,1l-2-.2-1.9-.7v-2.7a8.8,8.8,0,0,0,2,1.1,5.5,5.5,0,0,0,1.9.4,2.3,2.3,0,0,0,1.5-.4,1.5,1.5,0,0,0,.5-1.2,1.6,1.6,0,0,0-.4-1,2.3,2.3,0,0,0-1-.7Z"/><line class="o" x1="491.3" y1="314.4" x2="491.3" y2="312.4"/><line class="p" x1="491.3" y1="310.4" x2="491.3" y2="250.5"/><line class="o" x1="491.3" y1="249.5" x2="491.3" y2="247.5"/><polygon class="e" points="484.9 313.4 491.3 317.5 497.8 313.4 497.8 313.4 484.9 313.4 484.9 313.4"/><line class="q" x1="468.5" y1="329.8" x2="514.1" y2="329.8"/><polygon class="e" points="469.5 323.4 465.4 329.8 469.5 336.3 469.5 336.3 469.5 323.4 469.5 323.4"/><polygon class="e" points="513.2 323.4 517.3 329.8 513.2 336.3 513.1 336.3 513.1 323.4 513.2 323.4"/><path class="e" d="M485.7,344.2V345l-0.7-.3h-0.7a1.4,1.4,0,0,0-.9.3,0.9,0.9,0,0,0-.3.7,0.8,0.8,0,0,0,.2.6l0.8,0.3h0.4a2.3,2.3,0,0,1,1.2.6,1.6,1.6,0,0,1,.4,1.1,1.6,1.6,0,0,1-.5,1.3,2.3,2.3,0,0,1-1.5.4h-0.8l-0.8-.3v-0.8l0.8,0.4H484a1.4,1.4,0,0,0,.9-0.3,1,1,0,0,0,.1-1.4l-0.8-.4h-0.4a2.4,2.4,0,0,1-1.2-.6,1.4,1.4,0,0,1-.4-1,1.6,1.6,0,0,1,.5-1.3,2,2,0,0,1,1.4-.5h0.7Z"/><path class="e" d="M486.7,344h0.8l1.4,2.6,1.4-2.6h0.8l-1.9,3.2v2.6h-0.8v-2.6Z"/><path class="e" d="M491.4,344h1.1l2.3,4.8V344h0.8v5.8h-1.1l-2.3-4.8v4.8h-0.8V344Z"/><path class="e" d="M500.3,349.6l-0.6.2h-0.7a2.1,2.1,0,0,1-1.7-.8,4.3,4.3,0,0,1,0-4.5,2.1,2.1,0,0,1,1.7-.8h0.7l0.6,0.2V345l-0.6-.4h-0.7a1.3,1.3,0,0,0-1.2.6,4.4,4.4,0,0,0,0,3.6,1.3,1.3,0,0,0,1.2.6h0.7l0.6-.4v0.8Z"/><path class="n" d="M396.4,279.2h51a8.5,8.5,0,0,1,8.5,8.5v92.8a0,0,0,0,1,0,0h-68a0,0,0,0,1,0,0V287.7A8.5,8.5,0,0,1,396.4,279.2Z"/><rect class="e" x="395.9" y="364.2" width="52" height="7.33"/><path class="g" d="M406.8,295.7h2.8q3.2,0,4.6,1.5t1.4,5q0,3.5-1.4,5t-4.6,1.5h-2.8V295.7Zm2.6,2.3v8.4h0.7a2.4,2.4,0,0,0,2.2-1,6.1,6.1,0,0,0,.7-3.3,6,6,0,0,0-.7-3.3,2.4,2.4,0,0,0-2.2-1h-0.7Z"/><path class="g" d="M417.5,295.7h2.8l3.7,9.5v-9.5h2.3v13.1h-2.8l-3.7-9.5v9.5h-2.3V295.7Z"/><path class="g" d="M431.8,303.1a6.6,6.6,0,0,1-2.7-1.6,3.3,3.3,0,0,1-.7-2.2,3.6,3.6,0,0,1,1.1-2.8,4.5,4.5,0,0,1,3.1-1l1.8,0.2,1.8,0.6v2.5l-1.7-.9a5,5,0,0,0-1.7-.3,2.4,2.4,0,0,0-1.4.4,1.3,1.3,0,0,0-.5,1.1,1.2,1.2,0,0,0,.4.9,4.8,4.8,0,0,0,1.5.8l1.1,0.4a5.1,5.1,0,0,1,2.3,1.5,3.8,3.8,0,0,1,.7,2.4,3.6,3.6,0,0,1-1.2,3,5.4,5.4,0,0,1-3.5,1l-2-.2-1.9-.7v-2.7a8.7,8.7,0,0,0,2,1.1,5.5,5.5,0,0,0,1.9.4,2.3,2.3,0,0,0,1.5-.4,1.5,1.5,0,0,0,.5-1.2,1.6,1.6,0,0,0-.4-1,2.3,2.3,0,0,0-1-.7Z"/><path class="n" d="M535.3,279.2h51a8.5,8.5,0,0,1,8.5,8.5v92.8a0,0,0,0,1,0,0h-68a0,0,0,0,1,0,0V287.7A8.5,8.5,0,0,1,535.3,279.2Z"/><rect class="e" x="534.8" y="364.2" width="52" height="7.33"/><path class="g" d="M545.7,295.7h2.8q3.2,0,4.6,1.5t1.4,5q0,3.5-1.4,5t-4.6,1.5h-2.8V295.7Zm2.6,2.3v8.4H549a2.4,2.4,0,0,0,2.2-1,6.1,6.1,0,0,0,.7-3.3,6,6,0,0,0-.7-3.3,2.4,2.4,0,0,0-2.2-1h-0.7Z"/><path class="g" d="M556.4,295.7h2.8l3.7,9.5v-9.5h2.3v13.1h-2.8l-3.7-9.5v9.5h-2.3V295.7Z"/><path class="g" d="M570.7,303.1a6.6,6.6,0,0,1-2.7-1.6,3.3,3.3,0,0,1-.7-2.2,3.6,3.6,0,0,1,1.1-2.8,4.5,4.5,0,0,1,3.1-1l1.8,0.2,1.8,0.6v2.5l-1.7-.9a5,5,0,0,0-1.7-.3,2.4,2.4,0,0,0-1.4.4,1.3,1.3,0,0,0-.5,1.1,1.2,1.2,0,0,0,.4.9,4.8,4.8,0,0,0,1.5.8l1.1,0.4a5.1,5.1,0,0,1,2.3,1.5,3.8,3.8,0,0,1,.7,2.4,3.6,3.6,0,0,1-1.2,3,5.4,5.4,0,0,1-3.5,1l-2-.2-1.9-.7v-2.7a8.7,8.7,0,0,0,2,1.1,5.5,5.5,0,0,0,1.9.4,2.3,2.3,0,0,0,1.5-.4,1.5,1.5,0,0,0,.5-1.2,1.6,1.6,0,0,0-.4-1,2.3,2.3,0,0,0-1-.7Z"/><circle class="f" cx="491.3" cy="328.8" r="9.8"/><path class="o" d="M493.7,323a6.3,6.3,0,1,1-6.2.8"/><polygon class="e" points="485.5 321.4 488.9 323 488.9 326.8 488.9 326.8 485.5 321.4 485.5 321.4"/><path class="g" d="M410.8,322.6a2.2,2.2,0,0,1,1.7.6,3.6,3.6,0,0,1,0,3.9,2.2,2.2,0,0,1-1.7.6h-1v-5.1h1Zm0,4.5a1.5,1.5,0,0,0,1.2-.4,2.6,2.6,0,0,0,.3-1.6,2.6,2.6,0,0,0-.3-1.6,1.5,1.5,0,0,0-1.2-.4h-0.3v4h0.3Z"/><path class="g" d="M415.6,323.7a1.5,1.5,0,0,1,1.2.5,2.9,2.9,0,0,1,0,3,1.7,1.7,0,0,1-2.4,0,2.9,2.9,0,0,1,0-3A1.5,1.5,0,0,1,415.6,323.7Zm0,0.5a0.8,0.8,0,0,0-.7.4,2.6,2.6,0,0,0,0,2.2,0.9,0.9,0,0,0,1.5,0,2.6,2.6,0,0,0,0-2.2A0.8,0.8,0,0,0,415.6,324.3Z"/><path class="g" d="M420,324.2l0.3-.4h0.4a0.7,0.7,0,0,1,.7.4,3.2,3.2,0,0,1,.2,1.3v2.2H421v-2.2a3.2,3.2,0,0,0-.1-1l-0.3-.2a0.4,0.4,0,0,0-.4.2,2.9,2.9,0,0,0-.1,1v2.2h-0.6v-2.2a3,3,0,0,0-.1-1l-0.4-.2a0.3,0.3,0,0,0-.3.2,3,3,0,0,0-.1,1v2.2h-0.6v-3.8h0.6v0.3l0.3-.3h0.8Z"/><path class="g" d="M425.5,325.5v2.2h-0.6v-0.6l-0.5.5-0.7.2a1.3,1.3,0,0,1-.9-0.3,1.3,1.3,0,0,1,.1-1.9,2,2,0,0,1,1.3-.3h0.8a0.9,0.9,0,0,0-.2-0.7l-0.7-.2h-0.6l-0.6.3V324l0.7-.2h1.4l0.5,0.4,0.2,0.4A3.8,3.8,0,0,1,425.5,325.5Zm-1.2.3h-0.2l-0.8.2a0.7,0.7,0,0,0-.3.6,0.7,0.7,0,0,0,.2.5l0.6,0.2a1,1,0,0,0,.8-0.4,1.5,1.5,0,0,0,.3-1h-0.6Z"/><path class="g" d="M427.2,323.8h1.6v3.3h1.2v0.5h-3.1v-0.5h1.2v-2.8h-1v-0.5Zm1-1.5h0.6v0.8h-0.6v-0.8Z"/><path class="g" d="M433.9,325.3v2.4h-0.6v-2.4a1.3,1.3,0,0,0-.2-0.8,0.7,0.7,0,0,0-.6-0.2,0.8,0.8,0,0,0-.7.3,1.5,1.5,0,0,0-.2.9v2.2H431v-3.8h0.6v0.6l0.5-.5,0.7-.2a1,1,0,0,1,.9.4A1.9,1.9,0,0,1,433.9,325.3Z"/><path class="g" d="M402.3,335.3v2.4h-0.6v-2.4a1.3,1.3,0,0,0-.2-0.8,0.7,0.7,0,0,0-.6-0.2,0.8,0.8,0,0,0-.7.3,1.5,1.5,0,0,0-.2.9v2.2h-0.6v-3.8H400v0.6l0.5-.5,0.7-.2a1,1,0,0,1,.9.4A1.9,1.9,0,0,1,402.3,335.3Z"/><path class="g" d="M406.6,335.5v2.2h-0.6v-0.6l-0.5.5-0.7.2a1.3,1.3,0,0,1-.9-0.3,1.3,1.3,0,0,1,.1-1.9,2,2,0,0,1,1.3-.3h0.8a0.9,0.9,0,0,0-.2-0.7l-0.7-.2h-0.6l-0.6.3V334l0.7-.2h1.4l0.5,0.4,0.2,0.4A3.8,3.8,0,0,1,406.6,335.5Zm-1.2.3h-0.2l-0.8.2a0.7,0.7,0,0,0-.3.6,0.7,0.7,0,0,0,.2.5l0.6,0.2a1,1,0,0,0,.8-0.4,1.5,1.5,0,0,0,.3-1h-0.6Z"/><path class="g" d="M409.5,334.2l0.3-.4h0.4a0.7,0.7,0,0,1,.7.4,3.2,3.2,0,0,1,.2,1.3v2.2h-0.6v-2.2a3.2,3.2,0,0,0-.1-1l-0.3-.2a0.4,0.4,0,0,0-.4.2,2.9,2.9,0,0,0-.1,1v2.2H409v-2.2a3,3,0,0,0-.1-1l-0.4-.2a0.3,0.3,0,0,0-.3.2,3,3,0,0,0-.1,1v2.2h-0.6v-3.8h0.6v0.3l0.3-.3h0.8Z"/><path class="g" d="M415.2,335.4v0.3h-2.7a1.5,1.5,0,0,0,.3,1.1,1.2,1.2,0,0,0,.9.3h0.6l0.7-.3v0.6l-0.7.2h-0.6a1.8,1.8,0,0,1-1.4-.5,2.1,2.1,0,0,1-.5-1.5,2.1,2.1,0,0,1,.5-1.5,1.7,1.7,0,0,1,1.3-.5,1.4,1.4,0,0,1,1.2.5A1.9,1.9,0,0,1,415.2,335.4Zm-0.6-.2a1.2,1.2,0,0,0-.3-0.7,0.9,0.9,0,0,0-.7-0.3,1,1,0,0,0-.7.3,1.1,1.1,0,0,0-.3.7h2.1Z"/><path class="g" d="M423.1,334v0.6l-0.5-.2h-1.2a0.5,0.5,0,0,0-.2.4,0.5,0.5,0,0,0,.2.4l0.8,0.2h0.3l0.7,0.4a1,1,0,0,1,.2.7,1.1,1.1,0,0,1-.4.9,1.8,1.8,0,0,1-1.1.3h-0.6l-0.7-.2v-0.6l0.7,0.3h0.6l0.6-.2a0.6,0.6,0,0,0,.2-0.5,0.8,0.8,0,0,0-.8-0.6h-0.3l-0.8-.4a0.9,0.9,0,0,1-.2-0.7,1,1,0,0,1,.4-0.8,1.7,1.7,0,0,1,1.1-.3h0.6Z"/><path class="g" d="M427.8,335.4v0.3h-2.7a1.5,1.5,0,0,0,.3,1.1,1.2,1.2,0,0,0,.9.3H427l0.7-.3v0.6l-0.7.2h-0.6a1.8,1.8,0,0,1-1.4-.5,2.1,2.1,0,0,1-.5-1.5,2.1,2.1,0,0,1,.5-1.5,1.7,1.7,0,0,1,1.3-.5,1.4,1.4,0,0,1,1.2.5A1.9,1.9,0,0,1,427.8,335.4Zm-0.6-.2a1.2,1.2,0,0,0-.3-0.7,0.9,0.9,0,0,0-.7-0.3,1,1,0,0,0-.7.3,1.1,1.1,0,0,0-.3.7h2.1Z"/><path class="g" d="M432.2,334.6l-0.4-.2h-0.5a1.1,1.1,0,0,0-.9.4,1.6,1.6,0,0,0-.3,1.1v1.9h-0.6v-3.8h0.6v0.7a1.3,1.3,0,0,1,.5-0.6l0.8-.2h0.4l0.4,0.2v0.6Z"/><path class="g" d="M432.8,333.8h0.7l1.1,3.2,1.1-3.2h0.7l-1.4,3.8h-0.8Z"/><path class="g" d="M440.5,335.4v0.3h-2.7a1.5,1.5,0,0,0,.3,1.1,1.2,1.2,0,0,0,.9.3h0.6l0.7-.3v0.6l-0.7.2H439a1.8,1.8,0,0,1-1.4-.5,2.1,2.1,0,0,1-.5-1.5,2.1,2.1,0,0,1,.5-1.5,1.7,1.7,0,0,1,1.3-.5,1.4,1.4,0,0,1,1.2.5A1.9,1.9,0,0,1,440.5,335.4Zm-0.6-.2a1.2,1.2,0,0,0-.3-0.7,0.9,0.9,0,0,0-.7-0.3,1,1,0,0,0-.7.3,1.1,1.1,0,0,0-.3.7h2.1Z"/><path class="g" d="M444.8,334.6l-0.4-.2h-0.5a1.1,1.1,0,0,0-.9.4,1.6,1.6,0,0,0-.3,1.1v1.9h-0.6v-3.8h0.6v0.7a1.3,1.3,0,0,1,.5-0.6l0.8-.2h0.4l0.4,0.2v0.6Z"/><path class="g" d="M549.6,322.6a2.2,2.2,0,0,1,1.7.6,3.6,3.6,0,0,1,0,3.9,2.2,2.2,0,0,1-1.7.6h-1v-5.1h1Zm0,4.5a1.5,1.5,0,0,0,1.2-.4,2.6,2.6,0,0,0,.3-1.6,2.6,2.6,0,0,0-.3-1.6,1.5,1.5,0,0,0-1.2-.4h-0.3v4h0.3Z"/><path class="g" d="M554.4,323.7a1.5,1.5,0,0,1,1.2.5,2.9,2.9,0,0,1,0,3,1.7,1.7,0,0,1-2.4,0,2.9,2.9,0,0,1,0-3A1.5,1.5,0,0,1,554.4,323.7Zm0,0.5a0.8,0.8,0,0,0-.7.4,2.6,2.6,0,0,0,0,2.2,0.9,0.9,0,0,0,1.5,0,2.6,2.6,0,0,0,0-2.2A0.8,0.8,0,0,0,554.4,324.3Z"/><path class="g" d="M558.9,324.2l0.3-.4h0.4a0.7,0.7,0,0,1,.7.4,3.2,3.2,0,0,1,.2,1.3v2.2h-0.6v-2.2a3.3,3.3,0,0,0-.1-1l-0.3-.2a0.4,0.4,0,0,0-.4.2,2.9,2.9,0,0,0-.1,1v2.2h-0.6v-2.2a3,3,0,0,0-.1-1l-0.4-.2a0.3,0.3,0,0,0-.3.2,3,3,0,0,0-.1,1v2.2h-0.6v-3.8h0.6v0.3l0.3-.3h0.8Z"/><path class="g" d="M564.4,325.5v2.2h-0.6v-0.6l-0.5.5-0.7.2a1.3,1.3,0,0,1-.9-0.3,1.3,1.3,0,0,1,.1-1.9,2,2,0,0,1,1.3-.3h0.8a0.9,0.9,0,0,0-.2-0.7l-0.7-.2h-0.6l-0.6.3V324l0.7-.2h1.4l0.5,0.4,0.2,0.4A3.8,3.8,0,0,1,564.4,325.5Zm-1.2.3H563l-0.8.2a0.7,0.7,0,0,0-.3.6,0.7,0.7,0,0,0,.2.5l0.6,0.2a1,1,0,0,0,.8-0.4,1.5,1.5,0,0,0,.3-1h-0.6Z"/><path class="g" d="M566.1,323.8h1.6v3.3h1.2v0.5h-3.1v-0.5H567v-2.8h-1v-0.5Zm1-1.5h0.6v0.8H567v-0.8Z"/><path class="g" d="M572.8,325.3v2.4h-0.6v-2.4a1.3,1.3,0,0,0-.2-0.8,0.7,0.7,0,0,0-.6-0.2,0.8,0.8,0,0,0-.7.3,1.5,1.5,0,0,0-.2.9v2.2h-0.6v-3.8h0.6v0.6l0.5-.5,0.7-.2a1,1,0,0,1,.9.4A1.9,1.9,0,0,1,572.8,325.3Z"/><path class="g" d="M541.2,335.3v2.4h-0.6v-2.4a1.3,1.3,0,0,0-.2-0.8,0.7,0.7,0,0,0-.6-0.2,0.8,0.8,0,0,0-.7.3,1.5,1.5,0,0,0-.2.9v2.2h-0.6v-3.8h0.6v0.6l0.5-.5,0.7-.2a1,1,0,0,1,.9.4A1.9,1.9,0,0,1,541.2,335.3Z"/><path class="g" d="M545.4,335.5v2.2h-0.6v-0.6l-0.5.5-0.7.2a1.3,1.3,0,0,1-.9-0.3,1.3,1.3,0,0,1,.1-1.9,2,2,0,0,1,1.3-.3h0.8a0.9,0.9,0,0,0-.2-0.7l-0.7-.2h-0.6l-0.6.3V334l0.7-.2h1.4l0.5,0.4,0.2,0.4A3.8,3.8,0,0,1,545.4,335.5Zm-1.2.3H544l-0.8.2a0.7,0.7,0,0,0-.3.6,0.7,0.7,0,0,0,.2.5l0.6,0.2a1,1,0,0,0,.8-0.4,1.5,1.5,0,0,0,.3-1h-0.6Z"/><path class="g" d="M548.3,334.2l0.3-.4h0.4a0.7,0.7,0,0,1,.7.4,3.2,3.2,0,0,1,.2,1.3v2.2h-0.6v-2.2a3.2,3.2,0,0,0-.1-1l-0.3-.2a0.4,0.4,0,0,0-.4.2,2.9,2.9,0,0,0-.1,1v2.2h-0.6v-2.2a3,3,0,0,0-.1-1l-0.3-.2a0.4,0.4,0,0,0-.3.2,3,3,0,0,0-.1,1v2.2h-0.6v-3.8H547v0.3l0.3-.3h0.8Z"/><path class="g" d="M554.1,335.4v0.3h-2.7a1.5,1.5,0,0,0,.3,1.1,1.2,1.2,0,0,0,.9.3h0.6l0.7-.3v0.6l-0.7.2h-0.6a1.8,1.8,0,0,1-1.4-.5,2.1,2.1,0,0,1-.5-1.5,2.1,2.1,0,0,1,.5-1.5,1.7,1.7,0,0,1,1.3-.5,1.4,1.4,0,0,1,1.2.5A1.9,1.9,0,0,1,554.1,335.4Zm-0.6-.2a1.2,1.2,0,0,0-.3-0.7,0.9,0.9,0,0,0-.7-0.3,1,1,0,0,0-.7.3,1.1,1.1,0,0,0-.3.7h2.1Z"/><path class="g" d="M562,334v0.6l-0.5-.2h-1.2a0.5,0.5,0,0,0-.2.4,0.5,0.5,0,0,0,.2.4l0.8,0.2h0.3l0.7,0.4a1,1,0,0,1,.2.7,1.1,1.1,0,0,1-.4.9,1.8,1.8,0,0,1-1.1.3h-0.6l-0.7-.2v-0.6l0.7,0.3h0.6l0.6-.2a0.6,0.6,0,0,0,.2-0.5,0.8,0.8,0,0,0-.8-0.6h-0.3l-0.8-.4a0.9,0.9,0,0,1-.2-0.7,1,1,0,0,1,.4-0.8,1.7,1.7,0,0,1,1.1-.3h0.6Z"/><path class="g" d="M566.7,335.4v0.3H564a1.5,1.5,0,0,0,.3,1.1,1.2,1.2,0,0,0,.9.3h0.6l0.7-.3v0.6l-0.7.2h-0.6a1.8,1.8,0,0,1-1.4-.5,2.1,2.1,0,0,1-.5-1.5,2.1,2.1,0,0,1,.5-1.5,1.7,1.7,0,0,1,1.3-.5,1.4,1.4,0,0,1,1.2.5A1.9,1.9,0,0,1,566.7,335.4Zm-0.6-.2a1.2,1.2,0,0,0-.3-0.7,0.9,0.9,0,0,0-.7-0.3,1,1,0,0,0-.7.3,1.1,1.1,0,0,0-.3.7h2.1Z"/><path class="g" d="M571,334.6l-0.4-.2h-0.5a1.1,1.1,0,0,0-.9.4,1.6,1.6,0,0,0-.3,1.1v1.9h-0.6v-3.8H569v0.7a1.3,1.3,0,0,1,.5-0.6l0.8-.2h0.4L571,334v0.6Z"/><path class="g" d="M571.6,333.8h0.7l1.1,3.2,1.1-3.2h0.7l-1.4,3.8H573Z"/><path class="g" d="M579.3,335.4v0.3h-2.7a1.5,1.5,0,0,0,.3,1.1,1.2,1.2,0,0,0,.9.3h0.6l0.7-.3v0.6l-0.7.2h-0.6a1.8,1.8,0,0,1-1.4-.5,2.1,2.1,0,0,1-.5-1.5,2.1,2.1,0,0,1,.5-1.5,1.7,1.7,0,0,1,1.3-.5,1.4,1.4,0,0,1,1.2.5A1.9,1.9,0,0,1,579.3,335.4Zm-0.6-.2a1.2,1.2,0,0,0-.3-0.7,0.9,0.9,0,0,0-.7-0.3,1,1,0,0,0-.7.3,1.1,1.1,0,0,0-.3.7h2.1Z"/><path class="g" d="M583.7,334.6l-0.4-.2h-0.5a1.1,1.1,0,0,0-.9.4,1.6,1.6,0,0,0-.3,1.1v1.9H581v-3.8h0.6v0.7a1.3,1.3,0,0,1,.5-0.6l0.8-.2h0.4l0.4,0.2v0.6Z"/><circle class="r" cx="236.8" cy="294.1" r="8.6"/><path class="j" d="M235.2,295.9h1.3v-3.8l-1.2.3v-1l1.2-.3h1.1v4.8h1.3v1h-3.7v-1Z"/><circle class="s" cx="282.5" cy="285.5" r="8.6"/><path class="k" d="M281.8,287.4h2.5v1h-3.7v-1l0.6-.7,1.4-1.5,0.4-.6a1.1,1.1,0,0,0,.1-0.5,0.8,0.8,0,0,0-.2-0.6l-0.7-.2h-0.7l-0.8.4v-1.1l0.8-.2h0.8a2.2,2.2,0,0,1,1.5.4,1.4,1.4,0,0,1,.5,1.2,1.8,1.8,0,0,1-.1.6l-0.4.7-1.1,1.2Z"/><path class="e" d="M475.4,212.3h1.1v-3.9l-1.3.6v-0.7l1.3-.6h0.7v4.5h1.1v0.6h-2.8v-0.6Z"/><path class="e" d="M480.8,207.7a1.4,1.4,0,0,1,1.2.7,4.9,4.9,0,0,1,0,3.9,1.5,1.5,0,0,1-2.5,0,4.9,4.9,0,0,1,0-3.9A1.4,1.4,0,0,1,480.8,207.7Zm0,0.5a0.8,0.8,0,0,0-.7.5,4,4,0,0,0-.2,1.6,5.8,5.8,0,0,0,.1.9l1.6-2.5A0.8,0.8,0,0,0,480.8,208.2Zm0,4.2a0.8,0.8,0,0,0,.7-0.5,3.9,3.9,0,0,0,.2-1.6,7,7,0,0,0-.1-1l-1.6,2.5A0.8,0.8,0,0,0,480.8,212.4Z"/><path class="e" d="M484.2,211.4h1.2v1.4h-1.2v-1.4Z"/><path class="e" d="M489.2,207.7a1.4,1.4,0,0,1,1.2.7,4.9,4.9,0,0,1,0,3.9,1.5,1.5,0,0,1-2.5,0,4.9,4.9,0,0,1,0-3.9A1.4,1.4,0,0,1,489.2,207.7Zm0,0.5a0.8,0.8,0,0,0-.7.5,4,4,0,0,0-.2,1.6,5.8,5.8,0,0,0,.1.9l1.6-2.5A0.8,0.8,0,0,0,489.2,208.2Zm0,4.2a0.8,0.8,0,0,0,.7-0.5,3.9,3.9,0,0,0,.2-1.6,7,7,0,0,0-.1-1l-1.6,2.5A0.8,0.8,0,0,0,489.2,212.4Z"/><path class="e" d="M492.7,211.4h1.2v1.4h-1.2v-1.4Z"/><path class="e" d="M497.7,207.7a1.4,1.4,0,0,1,1.2.7,4.9,4.9,0,0,1,0,3.9,1.5,1.5,0,0,1-2.5,0,4.9,4.9,0,0,1,0-3.9A1.4,1.4,0,0,1,497.7,207.7Zm0,0.5a0.8,0.8,0,0,0-.7.5,4,4,0,0,0-.2,1.6,5.8,5.8,0,0,0,.1.9l1.6-2.5A0.8,0.8,0,0,0,497.7,208.2Zm0,4.2a0.8,0.8,0,0,0,.7-0.5,3.9,3.9,0,0,0,.2-1.6,7,7,0,0,0-.1-1l-1.6,2.5A0.8,0.8,0,0,0,497.7,212.4Z"/><path class="e" d="M501.1,211.4h1.2v1.4h-1.2v-1.4Z"/><path class="e" d="M504.9,212.3H506v-3.9l-1.3.6v-0.7l1.3-.6h0.7v4.5h1.1v0.6h-2.8v-0.6Z"/><path class="e" d="M538.5,351.4h1.1v-3.9l-1.3.6v-0.7l1.3-.6h0.7v4.5h1.1V352h-2.8v-0.6Z"/><path class="e" d="M542.6,351.9v-0.6l0.5,0.2h0.5a1.1,1.1,0,0,0,1-.5,2.6,2.6,0,0,0,.3-1.5,1.2,1.2,0,0,1-.5.5l-0.7.2a1.5,1.5,0,0,1-1.1-.5,1.9,1.9,0,0,1-.4-1.3,1.8,1.8,0,0,1,.4-1.3,1.5,1.5,0,0,1,1.2-.5,1.4,1.4,0,0,1,1.3.6,3.8,3.8,0,0,1,.4,2,3.3,3.3,0,0,1-.5,2,1.7,1.7,0,0,1-1.4.7h-0.5Zm1.2-2.2a0.8,0.8,0,0,0,.7-0.3,1.7,1.7,0,0,0,0-1.8,0.8,0.8,0,0,0-.7-0.3,0.8,0.8,0,0,0-.7.3,1.8,1.8,0,0,0,0,1.8A0.8,0.8,0,0,0,543.8,349.7Z"/><path class="e" d="M547.3,351.4h2.3V352h-3.1v-0.6l1.1-1.2,0.7-.7,0.5-.7a1.2,1.2,0,0,0,.1-0.5,0.9,0.9,0,0,0-.3-0.7,0.9,0.9,0,0,0-.7-0.2h-0.7l-0.7.3v-0.7l0.7-.3h0.7a1.8,1.8,0,0,1,1.2.4,1.3,1.3,0,0,1,.5,1,1.5,1.5,0,0,1-.2.7l-0.5.7-0.6.6Z"/><path class="e" d="M551.6,350.6h1.2V352h-1.2v-1.4Z"/><path class="e" d="M555.4,351.4h1.1v-3.9l-1.3.6v-0.7l1.3-.6h0.7v4.5h1.1V352h-2.8v-0.6Z"/><path class="e" d="M562,347v0.6l-0.5-.2h-0.5a1.1,1.1,0,0,0-1,.5,2.6,2.6,0,0,0-.3,1.5,1.2,1.2,0,0,1,.5-0.5l0.7-.2a1.5,1.5,0,0,1,1.1.5,1.9,1.9,0,0,1,.4,1.3,1.8,1.8,0,0,1-.4,1.3,1.5,1.5,0,0,1-1.2.5,1.4,1.4,0,0,1-1.3-.6,3.8,3.8,0,0,1-.4-2,3.3,3.3,0,0,1,.5-2,1.7,1.7,0,0,1,1.4-.7h0.5Zm-1.2,2.2a0.8,0.8,0,0,0-.7.3,1.7,1.7,0,0,0,0,1.8,0.8,0.8,0,0,0,.7.3,0.8,0.8,0,0,0,.7-0.3,1.8,1.8,0,0,0,0-1.8A0.8,0.8,0,0,0,560.8,349.2Z"/><path class="e" d="M564.4,349.3a1.3,1.3,0,0,1-.7-0.4,1.1,1.1,0,0,1-.2-0.7,1.2,1.2,0,0,1,.4-1,2,2,0,0,1,2.3,0,1.2,1.2,0,0,1,.4,1,1.1,1.1,0,0,1-.2.7,1.3,1.3,0,0,1-.7.4,1.3,1.3,0,0,1,.8.5,1.4,1.4,0,0,1,.3.9,1.4,1.4,0,0,1-.4,1.1,2.1,2.1,0,0,1-2.4,0,1.4,1.4,0,0,1-.4-1.1,1.4,1.4,0,0,1,.3-0.9A1.3,1.3,0,0,1,564.4,349.3Zm0.6,0.3a1,1,0,0,0-.7.3,1.2,1.2,0,0,0,0,1.5,1.1,1.1,0,0,0,1.4,0,1,1,0,0,0,.3-0.7,1,1,0,0,0-.3-0.7A1,1,0,0,0,565,349.6Zm-0.9-1.4a0.8,0.8,0,0,0,.2.6L565,349l0.6-.2a0.8,0.8,0,0,0,.2-0.6,0.9,0.9,0,0,0-.2-0.6l-0.6-.2-0.6.2A0.9,0.9,0,0,0,564.1,348.2Z"/><path class="e" d="M568.4,350.6h1.2V352h-1.2v-1.4Z"/><path class="e" d="M573.4,346.8a1.4,1.4,0,0,1,1.2.7,4.9,4.9,0,0,1,0,3.9,1.5,1.5,0,0,1-2.5,0,4.9,4.9,0,0,1,0-3.9A1.4,1.4,0,0,1,573.4,346.8Zm0,0.5a0.8,0.8,0,0,0-.7.5,4,4,0,0,0-.2,1.6,5.8,5.8,0,0,0,.1.9l1.6-2.5A0.8,0.8,0,0,0,573.4,347.4Zm0,4.2a0.8,0.8,0,0,0,.7-0.5,3.9,3.9,0,0,0,.2-1.6,7,7,0,0,0-.1-1l-1.6,2.5A0.8,0.8,0,0,0,573.4,351.5Z"/><path class="e" d="M576.8,350.6H578V352h-1.2v-1.4Z"/><path class="e" d="M580.7,351.4h1.1v-3.9l-1.3.6v-0.7l1.3-.6h0.7v4.5h1.1V352h-2.8v-0.6Z"/><path class="e" d="M399.6,351.4h1.1v-3.9l-1.3.6v-0.7l1.3-.6h0.7v4.5h1.1V352h-2.8v-0.6Z"/><path class="e" d="M403.7,351.9v-0.6l0.5,0.2h0.5a1.1,1.1,0,0,0,1-.5,2.6,2.6,0,0,0,.3-1.5,1.2,1.2,0,0,1-.5.5l-0.7.2a1.5,1.5,0,0,1-1.1-.5,1.9,1.9,0,0,1-.4-1.3,1.8,1.8,0,0,1,.4-1.3,1.5,1.5,0,0,1,1.2-.5,1.4,1.4,0,0,1,1.3.6,3.8,3.8,0,0,1,.4,2,3.3,3.3,0,0,1-.5,2,1.7,1.7,0,0,1-1.4.7h-0.5Zm1.2-2.2a0.8,0.8,0,0,0,.7-0.3,1.7,1.7,0,0,0,0-1.8,0.8,0.8,0,0,0-.7-0.3,0.8,0.8,0,0,0-.7.3,1.8,1.8,0,0,0,0,1.8A0.8,0.8,0,0,0,405,349.7Z"/><path class="e" d="M408.4,351.4h2.3V352h-3.1v-0.6l1.1-1.2,0.7-.7,0.5-.7a1.2,1.2,0,0,0,.1-0.5,0.9,0.9,0,0,0-.3-0.7,1,1,0,0,0-.7-0.2h-0.7l-0.7.3v-0.7l0.7-.3h0.7a1.8,1.8,0,0,1,1.2.4,1.3,1.3,0,0,1,.5,1,1.6,1.6,0,0,1-.2.7l-0.5.7-0.6.6Z"/><path class="e" d="M412.7,350.6h1.2V352h-1.2v-1.4Z"/><path class="e" d="M416.5,351.4h1.1v-3.9l-1.3.6v-0.7l1.3-.6h0.7v4.5h1.1V352h-2.8v-0.6Z"/><path class="e" d="M423.2,347v0.6l-0.5-.2h-0.5a1.1,1.1,0,0,0-1,.5,2.6,2.6,0,0,0-.3,1.5,1.2,1.2,0,0,1,.5-0.5l0.7-.2a1.5,1.5,0,0,1,1.1.5,1.9,1.9,0,0,1,.4,1.3,1.8,1.8,0,0,1-.4,1.3,1.5,1.5,0,0,1-1.2.5,1.4,1.4,0,0,1-1.3-.6,3.8,3.8,0,0,1-.4-2,3.3,3.3,0,0,1,.5-2,1.7,1.7,0,0,1,1.4-.7h0.5Zm-1.2,2.2a0.8,0.8,0,0,0-.7.3,1.7,1.7,0,0,0,0,1.8,0.8,0.8,0,0,0,.7.3,0.8,0.8,0,0,0,.7-0.3,1.8,1.8,0,0,0,0-1.8A0.8,0.8,0,0,0,421.9,349.2Z"/><path class="e" d="M425.5,349.3a1.2,1.2,0,0,1-.7-0.4,1.1,1.1,0,0,1-.2-0.7,1.2,1.2,0,0,1,.4-1,2,2,0,0,1,2.3,0,1.2,1.2,0,0,1,.4,1,1.1,1.1,0,0,1-.2.7,1.3,1.3,0,0,1-.7.4,1.3,1.3,0,0,1,.8.5,1.4,1.4,0,0,1,.3.9,1.4,1.4,0,0,1-.4,1.1,2.1,2.1,0,0,1-2.4,0,1.4,1.4,0,0,1-.4-1.1,1.4,1.4,0,0,1,.3-0.9A1.3,1.3,0,0,1,425.5,349.3Zm0.6,0.3a0.9,0.9,0,0,0-.7.3,1.2,1.2,0,0,0,0,1.5,0.9,0.9,0,0,0,.7.3,1,1,0,0,0,.7-0.3,1,1,0,0,0,.3-0.7,1,1,0,0,0-.3-0.7A1,1,0,0,0,426.1,349.6Zm-0.9-1.4a0.8,0.8,0,0,0,.2.6l0.6,0.2,0.6-.2a0.8,0.8,0,0,0,.2-0.6,0.9,0.9,0,0,0-.2-0.6l-0.6-.2-0.6.2A0.9,0.9,0,0,0,425.3,348.2Z"/><path class="e" d="M429.6,350.6h1.2V352h-1.2v-1.4Z"/><path class="e" d="M434.5,346.8a1.4,1.4,0,0,1,1.2.7,4.9,4.9,0,0,1,0,3.9,1.5,1.5,0,0,1-2.5,0,4.9,4.9,0,0,1,0-3.9A1.4,1.4,0,0,1,434.5,346.8Zm0,0.5a0.8,0.8,0,0,0-.7.5,4,4,0,0,0-.2,1.6,6,6,0,0,0,.1.9l1.6-2.5A0.8,0.8,0,0,0,434.5,347.4Zm0,4.2a0.8,0.8,0,0,0,.7-0.5,4,4,0,0,0,.2-1.6,6.9,6.9,0,0,0-.1-1l-1.6,2.5A0.8,0.8,0,0,0,434.5,351.5Z"/><path class="e" d="M438,350.6h1.2V352H438v-1.4Z"/><path class="e" d="M443,346.8a1.4,1.4,0,0,1,1.2.7,4.9,4.9,0,0,1,0,3.9,1.5,1.5,0,0,1-2.5,0,4.9,4.9,0,0,1,0-3.9A1.4,1.4,0,0,1,443,346.8Zm0,0.5a0.8,0.8,0,0,0-.7.5,4,4,0,0,0-.2,1.6,6,6,0,0,0,.1.9l1.6-2.5A0.8,0.8,0,0,0,443,347.4Zm0,4.2a0.8,0.8,0,0,0,.7-0.5,4,4,0,0,0,.2-1.6,6.9,6.9,0,0,0-.1-1l-1.6,2.5A0.8,0.8,0,0,0,443,351.5Z"/><path class="g" d="M465.6,183.4h0.8l1.6,5.1h-0.7l-0.4-1.3h-1.8l-0.4,1.3h-0.7ZM466,184l-0.7,2.6h1.5Z"/><path class="g" d="M468.8,187v-2.4h0.6V187a1.3,1.3,0,0,0,.2.8,0.7,0.7,0,0,0,.6.2,0.8,0.8,0,0,0,.7-0.3,1.5,1.5,0,0,0,.2-0.9v-2.2h0.6v3.8h-0.6v-0.6l-0.5.5-0.7.2a1,1,0,0,1-.9-0.4A1.9,1.9,0,0,1,468.8,187Z"/><path class="g" d="M474.5,183.6v1.1h1.4v0.5h-1.4v2.1a0.8,0.8,0,0,0,.2.6l0.6,0.2h0.7v0.5h-0.8a1.4,1.4,0,0,1-1-.3,1.3,1.3,0,0,1-.3-1v-2.1h-1v-0.5h1v-1.1h0.6Z"/><path class="g" d="M480.2,186.1v2.4h-0.6v-2.4a1.3,1.3,0,0,0-.2-0.8,0.7,0.7,0,0,0-.6-0.2,0.8,0.8,0,0,0-.7.3,1.5,1.5,0,0,0-.2.9v2.2h-0.6v-5.3h0.6v2.1l0.5-.5,0.7-.2a1,1,0,0,1,.9.4A1.9,1.9,0,0,1,480.2,186.1Z"/><path class="g" d="M482.9,184.6a1.5,1.5,0,0,1,1.2.5,2.9,2.9,0,0,1,0,3,1.7,1.7,0,0,1-2.4,0,2.9,2.9,0,0,1,0-3A1.5,1.5,0,0,1,482.9,184.6Zm0,0.5a0.8,0.8,0,0,0-.7.4,2.6,2.6,0,0,0,0,2.2,0.9,0.9,0,0,0,1.5,0,2.6,2.6,0,0,0,0-2.2A0.8,0.8,0,0,0,482.9,185.1Z"/><path class="g" d="M489,185.4l-0.4-.2h-0.5a1.1,1.1,0,0,0-.9.4,1.6,1.6,0,0,0-.3,1.1v1.9h-0.6v-3.8h0.6v0.7a1.3,1.3,0,0,1,.5-0.6l0.8-.2h0.4l0.4,0.2v0.6Z"/><path class="g" d="M490.3,184.7h1.6V188h1.2v0.5H490V188h1.2v-2.8h-1v-0.5Zm1-1.5h0.6V184h-0.6v-0.8Z"/><path class="g" d="M495.5,183.6v1.1H497v0.5h-1.4v2.1a0.9,0.9,0,0,0,.2.6l0.6,0.2H497v0.5h-0.8a1.4,1.4,0,0,1-1-.3,1.3,1.3,0,0,1-.3-1v-2.1h-1v-0.5h1v-1.1h0.6Z"/><path class="g" d="M501.3,186.3v2.2h-0.6v-0.6l-0.5.5-0.7.2a1.3,1.3,0,0,1-.9-0.3,1.3,1.3,0,0,1,.1-1.9,2,2,0,0,1,1.3-.3h0.8a0.9,0.9,0,0,0-.2-0.7l-0.7-.2H499l-0.6.3v-0.6l0.7-.2h1.4l0.5,0.4,0.2,0.4A3.9,3.9,0,0,1,501.3,186.3Zm-1.2.3h-0.2l-0.8.2a0.7,0.7,0,0,0-.3.6,0.7,0.7,0,0,0,.2.5l0.6,0.2a1,1,0,0,0,.8-0.4,1.5,1.5,0,0,0,.3-1h-0.6Z"/><path class="g" d="M504,183.6v1.1h1.4v0.5H504v2.1a0.9,0.9,0,0,0,.2.6l0.6,0.2h0.7v0.5h-0.8a1.4,1.4,0,0,1-1-.3,1.3,1.3,0,0,1-.3-1v-2.1h-1v-0.5h1v-1.1H504Z"/><path class="g" d="M507.2,184.7h1.6V188H510v0.5h-3.1V188h1.2v-2.8h-1v-0.5Zm1-1.5h0.6V184h-0.6v-0.8Z"/><path class="g" d="M510.6,184.7h0.7l1.1,3.2,1.1-3.2h0.7l-1.4,3.8H512Z"/><path class="g" d="M518.3,186.3v0.3h-2.7a1.5,1.5,0,0,0,.3,1.1,1.2,1.2,0,0,0,.9.3h0.6l0.7-.3v0.6l-0.7.2h-0.6a1.8,1.8,0,0,1-1.4-.5,2.1,2.1,0,0,1-.5-1.5,2.1,2.1,0,0,1,.5-1.5,1.7,1.7,0,0,1,1.3-.5,1.4,1.4,0,0,1,1.2.5A1.9,1.9,0,0,1,518.3,186.3Zm-0.6-.2a1.2,1.2,0,0,0-.3-0.7,0.9,0.9,0,0,0-.7-0.3,1,1,0,0,0-.7.3,1.1,1.1,0,0,0-.3.7h2.1Z"/><path class="g" d="M471.7,196.1v2.4h-0.6v-2.4a1.3,1.3,0,0,0-.2-0.8,0.7,0.7,0,0,0-.6-0.2,0.8,0.8,0,0,0-.7.3,1.5,1.5,0,0,0-.2.9v2.2h-0.6v-3.8h0.6v0.6l0.5-.5,0.7-.2a1,1,0,0,1,.9.4A1.9,1.9,0,0,1,471.7,196.1Z"/><path class="g" d="M476,196.3v2.2h-0.6v-0.6l-0.5.5-0.7.2a1.3,1.3,0,0,1-.9-0.3,1.3,1.3,0,0,1,.1-1.9,2,2,0,0,1,1.3-.3h0.8a0.9,0.9,0,0,0-.2-0.7l-0.7-.2h-0.6l-0.6.3v-0.6l0.7-.2h1.4l0.5,0.4,0.2,0.4A3.8,3.8,0,0,1,476,196.3Zm-1.2.3h-0.2l-0.8.2a0.7,0.7,0,0,0-.3.6,0.7,0.7,0,0,0,.2.5l0.6,0.2a1,1,0,0,0,.8-0.4,1.5,1.5,0,0,0,.3-1h-0.6Z"/><path class="g" d="M478.9,195l0.3-.4h0.4a0.7,0.7,0,0,1,.7.4,3.2,3.2,0,0,1,.2,1.3v2.2h-0.6v-2.2a3.2,3.2,0,0,0-.1-1l-0.3-.2a0.4,0.4,0,0,0-.4.2,2.9,2.9,0,0,0-.1,1v2.2h-0.6v-2.2a3,3,0,0,0-.1-1l-0.4-.2a0.3,0.3,0,0,0-.3.2,3,3,0,0,0-.1,1v2.2H477v-3.8h0.6V195l0.3-.3h0.8Z"/><path class="g" d="M484.6,196.3v0.3h-2.7a1.5,1.5,0,0,0,.3,1.1,1.2,1.2,0,0,0,.9.3h0.6l0.7-.3v0.6l-0.7.2h-0.6a1.8,1.8,0,0,1-1.4-.5,2.1,2.1,0,0,1-.5-1.5,2.1,2.1,0,0,1,.5-1.5,1.7,1.7,0,0,1,1.3-.5,1.4,1.4,0,0,1,1.2.5A1.9,1.9,0,0,1,484.6,196.3Zm-0.6-.2a1.2,1.2,0,0,0-.3-0.7,0.9,0.9,0,0,0-.7-0.3,1,1,0,0,0-.7.3,1.1,1.1,0,0,0-.3.7H484Z"/><path class="g" d="M492.6,194.8v0.6l-0.5-.2h-1.2a0.5,0.5,0,0,0-.2.4,0.5,0.5,0,0,0,.2.4l0.8,0.2h0.3l0.7,0.4a1,1,0,0,1,.2.7,1.1,1.1,0,0,1-.4.9,1.8,1.8,0,0,1-1.1.3h-0.6l-0.7-.2v-0.6l0.7,0.3h0.6l0.6-.2a0.6,0.6,0,0,0,.2-0.5,0.8,0.8,0,0,0-.8-0.6H491l-0.8-.4a0.9,0.9,0,0,1-.2-0.7,1,1,0,0,1,.4-0.8,1.7,1.7,0,0,1,1.1-.3H492Z"/><path class="g" d="M497.3,196.3v0.3h-2.7a1.5,1.5,0,0,0,.3,1.1,1.2,1.2,0,0,0,.9.3h0.6l0.7-.3v0.6l-0.7.2h-0.6a1.8,1.8,0,0,1-1.4-.5,2.1,2.1,0,0,1-.5-1.5,2.1,2.1,0,0,1,.5-1.5,1.7,1.7,0,0,1,1.3-.5,1.4,1.4,0,0,1,1.2.5A1.9,1.9,0,0,1,497.3,196.3Zm-0.6-.2a1.2,1.2,0,0,0-.3-0.7,0.9,0.9,0,0,0-.7-0.3,1,1,0,0,0-.7.3,1.1,1.1,0,0,0-.3.7h2.1Z"/><path class="g" d="M501.6,195.4l-0.4-.2h-0.5a1.1,1.1,0,0,0-.9.4,1.6,1.6,0,0,0-.3,1.1v1.9h-0.6v-3.8h0.6v0.7a1.3,1.3,0,0,1,.5-0.6l0.8-.2h0.4l0.4,0.2v0.6Z"/><path class="g" d="M502.2,194.7h0.7l1.1,3.2,1.1-3.2h0.7l-1.4,3.8h-0.8Z"/><path class="g" d="M509.9,196.3v0.3h-2.7a1.5,1.5,0,0,0,.3,1.1,1.2,1.2,0,0,0,.9.3H509l0.7-.3v0.6l-0.7.2h-0.6a1.8,1.8,0,0,1-1.4-.5,2.1,2.1,0,0,1-.5-1.5,2.1,2.1,0,0,1,.5-1.5,1.7,1.7,0,0,1,1.3-.5,1.4,1.4,0,0,1,1.2.5A1.9,1.9,0,0,1,509.9,196.3Zm-0.6-.2a1.2,1.2,0,0,0-.3-0.7,0.9,0.9,0,0,0-.7-0.3,1,1,0,0,0-.7.3,1.1,1.1,0,0,0-.3.7h2.1Z"/><path class="g" d="M514.2,195.4l-0.4-.2h-0.5a1.1,1.1,0,0,0-.9.4,1.6,1.6,0,0,0-.3,1.1v1.9h-0.6v-3.8h0.6v0.7a1.3,1.3,0,0,1,.5-0.6l0.8-.2h0.4l0.4,0.2v0.6Z"/><path class="j" d="M149.7,205.3h0.6l-0.3,3.5,1-2.3h0.6v2.3l1.1-3.6h0.6l-1.5,4.4h-0.6v-2.5l-1.1,2.5h-0.6Z"/><path class="j" d="M155.7,209.5l-0.6.2h-0.6a1.4,1.4,0,0,1-1-.3,1.3,1.3,0,0,1-.3-1,2.4,2.4,0,0,1,.2-0.9,2.3,2.3,0,0,1,.5-0.8l0.5-.4H155a1.2,1.2,0,0,1,.9.3,1.2,1.2,0,0,1,.3.9v0.6h-2.4v0.2h0a0.8,0.8,0,0,0,.2.6l0.7,0.2h0.6l0.6-.2v0.5Zm-0.1-1.8h0a0.8,0.8,0,0,0-.2-0.5l-0.5-.2-0.7.3a1.5,1.5,0,0,0-.4.7h1.8Z"/><path class="j" d="M157.8,206.8l0.4-.4h0.5a0.9,0.9,0,0,1,.7.3,1.2,1.2,0,0,1,.3.8,3.1,3.1,0,0,1-.1.8,2.6,2.6,0,0,1-.3.7l-0.5.5-0.7.2h-0.5l-0.3-.4v0.4h-0.5l0.9-4.6h0.5Zm0.3,2.5h0.4l0.3-.4,0.2-.6a2.7,2.7,0,0,0,.1-0.7,0.9,0.9,0,0,0-.1-0.6l-0.4-.2h-0.4l-0.4.4-0.2.6a2.8,2.8,0,0,0-.1.7,0.9,0.9,0,0,0,.2.6Z"/><path class="j" d="M163.3,206.5V207l-0.4-.2h-1.1a0.5,0.5,0,0,0-.2.4,0.7,0.7,0,0,0,.6.5h0.3l0.5,0.3a0.6,0.6,0,0,1,.2.4,1,1,0,0,1-.4.9,1.8,1.8,0,0,1-1.1.3H161l-0.5-.2V209l0.5,0.2h0.5l0.6-.2a0.5,0.5,0,0,0,.2-0.4,0.6,0.6,0,0,0-.6-0.4h-0.3l-0.6-.3a0.7,0.7,0,0,1-.2-0.5,0.9,0.9,0,0,1,.4-0.8,1.7,1.7,0,0,1,1-.3h0.9Z"/><path class="j" d="M164.8,206.4h1.4l-0.6,2.9h1.1v0.4h-2.7v-0.4h1.1l0.5-2.4h-0.8v-0.4Zm1.1-1.3h0.5v0.7h-0.5v-0.7Z"/><path class="j" d="M169.6,205.5l-0.2.9h1.2v0.4h-1.2l-0.3,1.8v0.2h0a0.3,0.3,0,0,0,.1.3h1v0.4h-0.7l-0.7-.2a0.6,0.6,0,0,1-.2-0.5v-0.4l0.3-1.8h-0.9v-0.4h0.9l0.2-.9h0.5Z"/><path class="j" d="M173.8,209.5l-0.6.2h-0.6a1.4,1.4,0,0,1-1-.3,1.3,1.3,0,0,1-.3-1,2.4,2.4,0,0,1,.2-0.9,2.3,2.3,0,0,1,.5-0.8l0.5-.4h0.6a1.2,1.2,0,0,1,.9.3,1.2,1.2,0,0,1,.3.9v0.6h-2.4v0.2h0a0.8,0.8,0,0,0,.2.6l0.7,0.2h0.6l0.6-.2v0.5Zm-0.1-1.8h0a0.8,0.8,0,0,0-.2-0.5l-0.5-.2-0.7.3a1.5,1.5,0,0,0-.4.7h1.8Z"/><path class="j" d="M181.8,205.1v0.4h-1a0.7,0.7,0,0,0-.2.4v0.3h1.1v0.4h-1.1l-0.6,2.9h-0.5l0.6-2.9H179v-0.4h0.9v-0.2a1.4,1.4,0,0,1,.4-0.8,1.2,1.2,0,0,1,.8-0.2h0.6Z"/><path class="j" d="M183.9,206.3a1.2,1.2,0,0,1,.9.3,1.3,1.3,0,0,1,.3.9,2.8,2.8,0,0,1-.1.8l-0.3.7-0.6.5-0.8.2a1.1,1.1,0,0,1-.8-0.3,1.3,1.3,0,0,1-.3-0.9,2.7,2.7,0,0,1,.1-0.8l0.3-.7,0.6-.5Zm0,0.5a0.9,0.9,0,0,0-.8.5,2.3,2.3,0,0,0-.3,1.3,0.8,0.8,0,0,0,.2.6l0.5,0.2a0.9,0.9,0,0,0,.8-0.5,2.3,2.3,0,0,0,.3-1.3,0.8,0.8,0,0,0-.2-0.6Z"/><path class="j" d="M188.9,207.1l-0.3-.2h-0.4a1.1,1.1,0,0,0-.8.3,1.7,1.7,0,0,0-.5.9l-0.3,1.6H186l0.6-3.3h0.5V207l0.5-.5,0.7-.2h0.4l0.3,0.2v0.5Z"/><path class="j" d="M151.5,213.5l-0.2.9h1.2v0.4h-1.2l-0.3,1.8v0.2h0a0.3,0.3,0,0,0,.1.3h1v0.4h-0.7l-0.7-.2a0.6,0.6,0,0,1-.2-0.5v-0.4l0.3-1.8h-0.9v-0.4h0.9l0.2-.9h0.5Z"/><path class="j" d="M156,215.7l-0.4,2h-0.5l0.4-2h0v-0.3a0.5,0.5,0,0,0-.1-0.4H155a0.8,0.8,0,0,0-.6.3,1.5,1.5,0,0,0-.4.8l-0.4,1.9h-0.5l0.9-4.6h0.5l-0.3,1.8,0.5-.4h0.5l0.6,0.2a0.8,0.8,0,0,1,.2.6v0.5Z"/><path class="j" d="M159.3,217.5l-0.6.2h-0.6a1.4,1.4,0,0,1-1-.3,1.3,1.3,0,0,1-.3-1,2.4,2.4,0,0,1,.2-0.9,2.3,2.3,0,0,1,.5-0.8l0.5-.4h0.6a1.2,1.2,0,0,1,.9.3,1.2,1.2,0,0,1,.3.9v0.6h-2.4v0.2h0a0.8,0.8,0,0,0,.2.6l0.7,0.2h0.6l0.6-.2v0.5Zm-0.1-1.8h0a0.8,0.8,0,0,0-.2-0.5l-0.5-.2-0.7.3a1.5,1.5,0,0,0-.4.7h1.8Z"/><path class="j" d="M162.3,214.7l0.3-.3H163l0.4,0.2a0.6,0.6,0,0,1,.2.4,2.8,2.8,0,0,1,0,.4v0.5l-0.4,1.9h-0.5l0.4-1.9v-0.7a0.4,0.4,0,0,0-.1-0.3h-0.2l-0.3.2a2.8,2.8,0,0,0-.2.8l-0.4,1.9h-0.5l0.4-1.9v-0.7a0.4,0.4,0,0,0-.1-0.3h-0.2l-0.3.2a2.9,2.9,0,0,0-.3.9l-0.4,1.9h-0.5l0.6-3.3h0.5v0.3l0.3-.3h0.7Z"/><path class="j" d="M165,216.5h1l-0.2,1.2h-1Z"/><path class="j" d="M170.1,217.5l-0.5.2h-0.5a1.4,1.4,0,0,1-1-.3,1.3,1.3,0,0,1-.3-1,2.4,2.4,0,0,1,.2-0.9,2.1,2.1,0,0,1,.4-0.7l0.6-.4h1.2l0.5,0.2v0.5l-0.4-.2h-1l-0.4.4-0.3.5a2.1,2.1,0,0,0-.1.6,0.9,0.9,0,0,0,.2.6l0.6,0.2h0.5l0.5-.3v0.6Z"/><path class="j" d="M173,214.3a1.2,1.2,0,0,1,.9.3,1.3,1.3,0,0,1,.3.9,2.8,2.8,0,0,1-.1.8l-0.3.7-0.6.5-0.8.2a1.1,1.1,0,0,1-.8-0.3,1.3,1.3,0,0,1-.3-0.9,2.7,2.7,0,0,1,.1-0.8l0.3-.7,0.6-.5Zm0,0.5a0.9,0.9,0,0,0-.8.5,2.3,2.3,0,0,0-.3,1.3,0.8,0.8,0,0,0,.2.6l0.5,0.2a0.9,0.9,0,0,0,.8-0.5,2.3,2.3,0,0,0,.3-1.3,0.8,0.8,0,0,0-.2-0.6Z"/><path class="j" d="M176.8,214.7l0.3-.3h0.4l0.4,0.2a0.6,0.6,0,0,1,.2.4,2.8,2.8,0,0,1,0,.4v0.5l-0.4,1.9H177l0.4-1.9v-0.7a0.4,0.4,0,0,0-.1-0.3h-0.2l-0.3.2a2.8,2.8,0,0,0-.2.8l-0.4,1.9h-0.5l0.4-1.9v-0.7a0.4,0.4,0,0,0-.1-0.3H176l-0.3.2a2.9,2.9,0,0,0-.3.9l-0.4,1.9h-0.5l0.6-3.3h0.5v0.3l0.3-.3h0.7Z"/><path class="l" d="M123.1,112.3c0,61.3,34.5,93.3,120.8,94.1"/><polygon class="j" points="243.1 199.8 247 206.3 242.8 212.7 242.7 212.7 243 199.8 243.1 199.8"/><path class="m" d="M142.7,115.4c1.6,43.3,37.2,73.3,101.3,73.3"/><polygon class="k" points="149.2 116.2 142.7 112.3 136.3 116.5 136.3 116.5 149.2 116.2 149.2 116.2"/><path class="n" d="M261.1,147.9h51a8.5,8.5,0,0,1,8.5,8.5v92.8a0,0,0,0,1,0,0h-68a0,0,0,0,1,0,0V156.4A8.5,8.5,0,0,1,261.1,147.9Z"/><rect class="e" x="260.6" y="232.9" width="52" height="7.33"/><path class="g" d="M278.6,191.2h0.7v2h1.9v-2h0.7v5.1h-0.7v-2.6h-1.9v2.6h-0.7v-5.1Z"/><path class="g" d="M284.5,192.4a1.5,1.5,0,0,1,1.2.5,2.9,2.9,0,0,1,0,3,1.7,1.7,0,0,1-2.4,0,2.9,2.9,0,0,1,0-3A1.5,1.5,0,0,1,284.5,192.4Zm0,0.5a0.8,0.8,0,0,0-.7.4,2.6,2.6,0,0,0,0,2.2,0.9,0.9,0,0,0,1.5,0,2.6,2.6,0,0,0,0-2.2A0.8,0.8,0,0,0,284.5,193Z"/><path class="g" d="M289.9,192.7v0.6l-0.5-.2h-1.2a0.5,0.5,0,0,0-.2.4,0.5,0.5,0,0,0,.2.4l0.8,0.2h0.3l0.7,0.4a1,1,0,0,1,.2.7,1.1,1.1,0,0,1-.4.9,1.8,1.8,0,0,1-1.1.3H288l-0.7-.2v-0.6l0.7,0.3h0.6l0.6-.2a0.6,0.6,0,0,0,.2-0.5,0.8,0.8,0,0,0-.8-0.6h-0.3l-0.8-.4a0.9,0.9,0,0,1-.2-0.7,1,1,0,0,1,.4-0.8,1.7,1.7,0,0,1,1.1-.3h0.6Z"/><path class="g" d="M292.9,191.4v1.1h1.4V193h-1.4v2.1a0.9,0.9,0,0,0,.2.6l0.6,0.2h0.7v0.5h-0.8a1.4,1.4,0,0,1-1-.3,1.3,1.3,0,0,1-.3-1V193h-1v-0.5h1v-1.1h0.6Z"/><path class="e" d="M268.5,210.1h1.1v-3.9l-1.3.6v-0.7l1.3-.6h0.7v4.5h1.1v0.6h-2.8v-0.6Z"/><path class="e" d="M273.1,210.1h2.3v0.6h-3.1v-0.6l1.1-1.2,0.7-.7,0.5-.7a1.2,1.2,0,0,0,.1-0.5,0.9,0.9,0,0,0-.3-0.7,1,1,0,0,0-.7-0.2h-0.7l-0.7.3v-0.7l0.7-.3h0.7a1.8,1.8,0,0,1,1.2.4,1.3,1.3,0,0,1,.5,1,1.6,1.6,0,0,1-.2.7l-0.5.7-0.6.6Z"/><path class="e" d="M276.5,205.6h3.2v0.3l-1.8,4.8h-0.7l1.8-4.5h-2.4v-0.6Z"/><path class="e" d="M281.6,209.3h1.2v1.4h-1.2v-1.4Z"/><path class="e" d="M286.6,205.5a1.4,1.4,0,0,1,1.2.7,4.9,4.9,0,0,1,0,3.9,1.5,1.5,0,0,1-2.5,0,4.9,4.9,0,0,1,0-3.9A1.4,1.4,0,0,1,286.6,205.5Zm0,0.5a0.8,0.8,0,0,0-.7.5,4,4,0,0,0-.2,1.6,5.9,5.9,0,0,0,.1.9l1.6-2.5A0.8,0.8,0,0,0,286.6,206.1Zm0,4.2a0.8,0.8,0,0,0,.7-0.5,4,4,0,0,0,.2-1.6,6.9,6.9,0,0,0-.1-1l-1.6,2.5A0.8,0.8,0,0,0,286.6,210.2Z"/><path class="e" d="M290,209.3h1.2v1.4H290v-1.4Z"/><path class="e" d="M295,205.5a1.4,1.4,0,0,1,1.2.7,4.9,4.9,0,0,1,0,3.9,1.5,1.5,0,0,1-2.5,0,4.9,4.9,0,0,1,0-3.9A1.4,1.4,0,0,1,295,205.5Zm0,0.5a0.8,0.8,0,0,0-.7.5,4,4,0,0,0-.2,1.6,5.9,5.9,0,0,0,.1.9l1.6-2.5A0.8,0.8,0,0,0,295,206.1Zm0,4.2a0.8,0.8,0,0,0,.7-0.5,4,4,0,0,0,.2-1.6,6.9,6.9,0,0,0-.1-1l-1.6,2.5A0.8,0.8,0,0,0,295,210.2Z"/><path class="e" d="M298.4,209.3h1.2v1.4h-1.2v-1.4Z"/><path class="e" d="M302.2,210.1h1.1v-3.9l-1.3.6v-0.7l1.3-.6H304v4.5h1.1v0.6h-2.8v-0.6Z"/><path class="g" d="M285,164.4h3.2l3.5,13.1h-2.6l-0.8-3.2h-3.5l-0.8,3.2h-2.6Zm1.6,2.4-1.2,5.4h2.5Z"/><path class="k" d="M182.9,162.2h1.4l-0.6,2.9h1.1v0.4h-2.7v-0.4h1.1l0.5-2.4h-0.8v-0.4Zm1.1-1.3h0.5v0.7h-0.5v-0.7Z"/><path class="k" d="M188.7,163.5l-0.4,2h-0.5l0.4-2h0v-0.3a0.5,0.5,0,0,0-.1-0.4h-0.4a0.8,0.8,0,0,0-.6.3,1.5,1.5,0,0,0-.4.8l-0.4,1.9h-0.5l0.6-3.3h0.5v0.5l0.5-.4h0.5l0.6,0.2a0.8,0.8,0,0,1,.2.6v0.5Z"/><path class="k" d="M191.9,162.6l0.3-1.7h0.5l-0.9,4.6h-0.5v-0.4l-0.4.4h-0.5a0.9,0.9,0,0,1-.7-0.3,1.3,1.3,0,0,1-.3-0.9,3.1,3.1,0,0,1,.1-0.8,2.7,2.7,0,0,1,.3-0.7l0.5-.5,0.7-.2h0.5Zm-0.8,0h-0.5l-0.3.4-0.2.6a2.9,2.9,0,0,0-.1.7,0.9,0.9,0,0,0,.1.6l0.4,0.2h0.4l0.3-.4,0.2-.6a2.8,2.8,0,0,0,.1-0.7,0.8,0.8,0,0,0-.2-0.5Z"/><path class="k" d="M195.5,165.3l-0.6.2h-0.6a1.4,1.4,0,0,1-1-.3,1.3,1.3,0,0,1-.3-1,2.4,2.4,0,0,1,.2-0.9,2.3,2.3,0,0,1,.5-0.8l0.5-.4h0.6a1.2,1.2,0,0,1,.9.3,1.2,1.2,0,0,1,.3.9V164h-2.4v0.2h0a0.8,0.8,0,0,0,.2.6l0.7,0.2H195l0.6-.2v0.5Zm-0.1-1.8h0a0.8,0.8,0,0,0-.2-0.5l-0.5-.2-0.7.3a1.5,1.5,0,0,0-.4.7h1.8Z"/><path class="k" d="M199.9,162.2l-1.5,1.6,0.9,1.7h-0.6l-0.7-1.3-1.2,1.3h-0.7l1.7-1.7-0.9-1.5h0.6l0.6,1.2,1.1-1.2h0.7Z"/><path class="k" d="M201.2,164.3h1l-0.2,1.2h-1Z"/><path class="k" d="M206.7,163.5l-0.4,2h-0.5l0.4-2h0v-0.3a0.5,0.5,0,0,0-.1-0.4h-0.4a0.8,0.8,0,0,0-.6.3,1.5,1.5,0,0,0-.4.8l-0.4,1.9h-0.5l0.9-4.6h0.5l-0.3,1.8,0.5-.4h0.5l0.6,0.2a0.8,0.8,0,0,1,.2.6v0.5Z"/><path class="k" d="M209.4,161.3l-0.2.9h1.2v0.4h-1.2l-0.3,1.8v0.2h0a0.3,0.3,0,0,0,.1.3h1v0.4h-0.7l-0.7-.2a0.6,0.6,0,0,1-.2-0.5v-0.4l0.3-1.8h-0.9v-0.4h0.9l0.2-.9h0.5Z"/><path class="k" d="M213,162.5l0.3-.3h0.4l0.4,0.2a0.6,0.6,0,0,1,.2.4,2.8,2.8,0,0,1,0,.4v0.5l-0.4,1.9h-0.5l0.4-1.9v-0.7a0.4,0.4,0,0,0-.1-0.3h-0.2l-0.3.2a2.8,2.8,0,0,0-.2.8l-0.4,1.9H212l0.4-1.9v-0.7a0.4,0.4,0,0,0-.1-0.3h-0.2l-0.3.2a2.9,2.9,0,0,0-.3.9l-0.4,1.9h-0.5l0.6-3.3h0.5v0.3l0.3-.3h0.7Z"/><path class="k" d="M216.2,164.3v0.2h0a0.4,0.4,0,0,0,.1.3h1v0.5h-0.6l-0.8-.2a0.7,0.7,0,0,1-.2-0.6v-0.5l0.6-3h-0.9v-0.4h1.5Z"/><polygon class="t" points="208.1 156.3 191.8 156.3 191.8 136.9 202.6 136.9 208.1 143.4 208.1 156.3"/><polygon class="t" points="208.1 143.4 202.6 136.9 202.6 143.4 208.1 143.4"/><line class="t" x1="194.4" y1="146.6" x2="205.3" y2="146.6"/><line class="t" x1="194.4" y1="149.6" x2="205.3" y2="149.6"/><line class="t" x1="194.4" y1="152.6" x2="201.4" y2="152.6"/><circle class="r" cx="157.8" cy="188.3" r="8.6"/><path class="j" d="M157.6,188.6H157v-1h0.6l0.7-.2a0.6,0.6,0,0,0,.2-0.5,0.6,0.6,0,0,0-.2-0.5l-0.7-.2h-0.7l-0.8.2v-1l0.8-.2h0.8a2.3,2.3,0,0,1,1.4.4,1.3,1.3,0,0,1,.5,1.1,1.2,1.2,0,0,1-.3.8,1.5,1.5,0,0,1-.8.4,1.4,1.4,0,0,1,1.3,1.5,1.6,1.6,0,0,1-.5,1.3,2.4,2.4,0,0,1-1.6.4h-0.9l-0.8-.2V190l0.8,0.3h0.9l0.7-.2a0.7,0.7,0,0,0,.3-0.6,0.9,0.9,0,0,0-.3-0.7A1.1,1.1,0,0,0,157.6,188.6Z"/><circle class="s" cx="197.9" cy="182" r="8.6"/><path class="k" d="M198.1,179h1.2v3.6H200v1h-0.6v1.3h-1.1v-1.3h-2.3v-1.1Zm0.1,1.3-1.5,2.3h1.5v-2.3Z"/></svg>